<svg width="382" height="241" viewBox="0 0 382 241" fill="none" xmlns="http://www.w3.org/2000/svg">
<g clip-path="url(#clip0_3162_66240)">
<rect width="382" height="241" rx="16" fill="#FF4A4A"/>
<g opacity="0.32">
<path opacity="0.54" d="M-165.697 305.356C-177.439 289.869 -170.25 265.943 -155.112 253.774C-139.973 241.596 -119.583 238.502 -100.187 237.399C-80.7908 236.287 -60.8481 236.628 -42.6712 229.785C-5.05355 215.617 14.9249 175.352 30.2875 138.19C45.6501 101.028 62.7604 60.2885 98.5855 42.0393C126.675 27.736 160.098 30.7043 191.003 24.5166C244.951 13.7196 291.657 -27.8005 308.705 -80.1445" stroke="white" stroke-width="0.7" stroke-miterlimit="10"/>
<path opacity="0.54" d="M-163.555 310.144C-175.297 294.684 -168.27 270.812 -153.292 258.509C-151.957 257.406 -150.568 256.383 -149.151 255.415C-134.685 245.622 -116.302 242.762 -98.7078 241.56C-95.3108 241.327 -91.8959 241.138 -88.481 240.95C-72.4463 240.071 -56.3039 239.157 -41.3716 233.444C-36.5316 231.597 -31.9784 229.31 -27.6941 226.656C1.22053 208.765 17.9634 174.061 31.0762 141.634C32.0263 139.275 32.9853 136.908 33.9533 134.531C48.2852 99.3514 65.0101 62.889 97.474 44.7923C106.76 39.618 116.628 36.0668 127.159 33.8608C139.591 31.2512 152.668 30.5249 165.494 29.6729C174.251 29.09 182.936 28.4354 191.478 27.0813C195.493 26.4446 199.482 25.6375 203.434 24.6511C228.603 18.3827 252.148 4.80571 271.024 -13.4255C289.945 -31.7015 304.277 -54.56 312.2 -79.6514" stroke="white" stroke-width="0.7" stroke-miterlimit="10"/>
<path opacity="0.54" d="M-161.413 314.932C-173.163 299.49 -166.298 275.681 -151.482 263.243C-150.155 262.131 -148.784 261.091 -147.377 260.113C-133.045 250.195 -114.76 247.128 -97.2199 245.72C-93.8319 245.451 -90.4349 245.227 -87.029 245.003C-71.048 243.953 -54.9415 242.895 -40.063 237.111C-35.2409 235.237 -30.6966 232.941 -26.4213 230.269C2.43055 212.262 19.039 177.566 31.8829 145.085C32.8151 142.727 33.7562 140.35 34.6973 137.974C48.6975 102.749 65.0101 66.6097 96.3985 47.5625C105.568 41.9936 115.284 37.7519 126.03 35.2499C138.731 32.2906 152.292 31.7705 165.413 31.3131C174.368 30.9993 183.223 30.6944 191.962 29.6541C196.076 29.1609 200.154 28.4973 204.223 27.6275C230.117 22.1034 254.676 8.24842 274.018 -10.6195C293.405 -29.5232 307.764 -53.2784 315.687 -79.168" stroke="white" stroke-width="0.7" stroke-miterlimit="10"/>
<path opacity="0.54" d="M-159.279 319.722C-171.03 304.307 -164.335 280.552 -149.671 267.988C-148.363 266.867 -147.009 265.809 -145.611 264.823C-131.405 254.77 -113.228 251.497 -95.7408 249.892C-92.3708 249.587 -88.9738 249.318 -85.5858 249.058C-69.6586 247.838 -53.5969 246.636 -38.7632 240.78C-33.959 238.888 -29.4327 236.575 -25.1663 233.893C3.61384 215.779 20.0968 181.092 32.6718 148.548C33.5861 146.181 34.5003 143.805 35.4235 141.428C49.092 106.15 65.0013 70.3059 95.2962 50.335C104.358 44.3626 113.912 39.4483 124.883 36.6504C137.852 33.3324 151.897 33.0275 165.315 32.9737C174.475 32.9289 183.492 32.9827 192.428 32.2473C196.632 31.9066 200.817 31.3775 204.994 30.6242C231.614 25.8445 257.186 11.7204 276.994 -7.78414C296.847 -27.3246 311.232 -51.9676 319.165 -78.6553" stroke="white" stroke-width="0.7" stroke-miterlimit="10"/>
<path opacity="0.54" d="M-157.137 324.519C-168.888 309.121 -162.354 285.429 -147.861 272.731C-146.561 271.592 -145.226 270.534 -143.845 269.529C-129.773 259.342 -111.695 255.872 -94.2621 254.069C-90.9009 253.719 -87.5219 253.423 -84.1339 253.128C-68.2604 251.738 -52.2346 250.383 -37.4457 244.465C-32.6594 242.546 -28.1421 240.223 -23.8936 237.524C4.82378 219.302 21.1633 184.615 33.4874 152.018C34.3837 149.65 35.28 147.265 36.1763 144.879C49.5132 109.556 65.0102 73.9454 94.2206 53.1136C103.166 46.7287 112.577 41.1418 123.763 38.057C137.01 34.3802 151.53 34.2906 165.243 34.6313C174.601 34.8645 183.788 35.2591 192.93 34.8376C197.223 34.6403 201.517 34.2457 205.81 33.618C233.156 29.5915 259.74 15.1806 280.014 -4.95176C300.333 -25.1199 314.746 -50.6597 322.687 -78.1455" stroke="white" stroke-width="0.7" stroke-miterlimit="10"/>
<path opacity="0.54" d="M-154.995 329.309C-166.755 313.938 -160.382 290.29 -146.05 277.467C-144.768 276.319 -143.442 275.243 -142.071 274.229C-128.133 263.908 -110.153 260.24 -92.7741 258.231C-89.4219 257.846 -86.0519 257.514 -82.6818 257.182C-66.8621 255.622 -50.8721 254.124 -36.137 248.134C-31.3687 246.197 -26.8692 243.856 -22.6208 241.139C6.03388 222.8 22.2389 188.131 34.2942 155.471C35.1725 153.095 36.042 150.718 36.9203 148.324C49.9256 112.956 65.0014 77.5336 93.1362 55.8767C101.983 49.0703 111.224 42.8288 122.624 39.4391C136.141 35.4126 151.145 35.5292 165.163 36.2645C174.726 36.7667 184.084 37.511 193.414 37.4034C197.806 37.3496 202.189 37.0985 206.599 36.5874C234.671 33.3052 262.268 18.6252 283.008 -2.14379C303.784 -22.9487 318.233 -49.3763 326.183 -77.6602" stroke="white" stroke-width="0.7" stroke-miterlimit="10"/>
<path opacity="0.54" d="M-152.853 334.097C-164.613 318.744 -158.41 295.159 -144.231 282.201C-142.967 281.044 -141.649 279.95 -140.296 278.928C-126.484 268.481 -108.612 264.598 -91.2954 262.401C-87.9522 261.979 -84.6001 261.603 -81.239 261.235C-65.4731 259.513 -49.5279 257.863 -34.8376 251.801C-30.0872 249.837 -25.5967 247.479 -21.3662 244.752C7.22572 226.306 23.2964 191.637 35.0827 158.923C35.9431 156.547 36.7946 154.161 37.6461 151.767C50.3198 116.354 64.9742 81.0754 92.0335 58.6473C100.772 51.4105 109.852 44.5144 121.477 40.8376C135.262 36.4525 150.75 36.7843 165.064 37.9231C174.825 38.6944 184.352 39.7884 193.88 39.9947C198.361 40.0933 202.852 39.9767 207.378 39.5821C236.176 37.0443 264.786 22.0863 285.993 0.689568C307.235 -20.7431 321.71 -48.0674 329.669 -77.1494" stroke="white" stroke-width="0.7" stroke-miterlimit="10"/>
<path opacity="0.54" d="M-150.72 338.886C-162.488 323.56 -156.438 300.029 -142.429 286.945C-141.174 285.779 -139.875 284.676 -138.53 283.636C-124.853 273.054 -107.079 268.974 -89.8165 266.571C-86.4912 266.113 -83.1391 265.701 -79.7959 265.297C-64.0748 263.405 -48.1745 261.603 -33.5379 255.478C-28.8055 253.496 -24.324 251.119 -20.1114 248.375C8.41782 229.821 24.354 195.161 35.8714 162.385C36.705 159.999 37.5386 157.614 38.3721 155.22C50.7142 119.762 64.9205 84.5816 90.9311 61.4183C99.5624 53.733 108.481 46.2092 120.33 42.2275C134.384 37.4837 150.356 38.0307 164.965 39.5641C174.932 40.6044 184.621 42.0482 194.355 42.5683C198.935 42.8104 203.515 42.8373 208.158 42.5593C237.682 40.7748 267.305 25.5388 288.977 3.50534C310.686 -18.564 325.188 -46.7761 333.147 -76.6562" stroke="white" stroke-width="0.7" stroke-miterlimit="10"/>
<path opacity="0.54" d="M-148.578 343.684C-160.346 328.385 -154.467 304.908 -140.61 291.689C-139.373 290.506 -138.082 289.394 -136.756 288.344C-123.204 277.628 -105.547 273.342 -88.3287 270.741C-85.0124 270.239 -81.6781 269.79 -78.3439 269.351C-62.6766 267.288 -46.8121 265.343 -32.2293 259.146C-27.5058 257.146 -23.0512 254.752 -18.8386 251.999C9.61887 233.328 25.4296 198.677 36.6781 165.847C37.4937 163.461 38.3094 161.067 39.116 158.664C51.1175 123.161 64.8757 88.0526 89.8465 64.1898C98.3703 56.0472 107.136 47.8956 119.191 43.627C133.514 38.5334 149.97 39.2867 164.876 41.2147C175.04 42.524 184.899 44.3265 194.83 45.1605C199.5 45.5461 204.187 45.7165 208.938 45.5551C239.188 44.5148 269.814 29.0008 291.962 6.33966C314.136 -16.3574 328.665 -45.4753 336.633 -76.1445" stroke="white" stroke-width="0.7" stroke-miterlimit="10"/>
<path opacity="0.54" d="M-146.436 348.472C-158.213 333.191 -152.486 309.777 -138.799 296.424C-137.571 295.231 -136.298 294.102 -134.99 293.043C-121.572 282.202 -104.014 277.709 -86.8497 274.911C-83.5423 274.373 -80.2171 273.889 -76.8918 273.413C-61.2783 271.18 -45.4586 269.091 -30.9206 262.822C-26.2151 260.796 -21.7694 258.392 -17.5747 255.621C10.82 236.843 26.4963 202.201 37.4849 169.308C38.2826 166.923 39.0713 164.519 39.8601 162.116C51.5299 126.568 64.813 91.487 88.7621 66.9696C97.1694 58.3606 105.783 49.5903 118.062 45.0258C132.654 39.5735 149.594 40.533 164.804 42.8646C175.174 44.4518 185.195 46.5951 195.332 47.743C200.091 48.281 204.887 48.5859 209.753 48.5411C240.73 48.2541 272.369 32.4621 294.983 9.16424C317.623 -14.1605 332.188 -44.1752 340.156 -75.6426" stroke="white" stroke-width="0.7" stroke-miterlimit="10"/>
<path opacity="0.54" d="M-144.293 353.261C-156.071 338.007 -150.514 314.637 -136.988 301.168C-135.778 299.966 -134.524 298.827 -133.215 297.751C-119.923 286.775 -102.472 282.076 -85.3616 279.081C-82.0722 278.507 -78.7559 277.987 -75.4396 277.475C-59.8799 275.081 -44.096 272.83 -29.6118 266.499C-24.9242 264.454 -20.4965 262.033 -16.3108 259.244C12.0212 240.358 27.563 205.725 38.2828 172.769C39.0626 170.375 39.8334 167.972 40.5952 165.568C51.9334 129.976 64.7236 94.8855 87.6688 69.7403C95.9596 60.6561 104.421 51.2849 116.924 46.4245C131.785 40.6135 149.209 41.7882 164.715 44.5234C175.291 46.3797 185.473 48.8727 195.807 50.3344C200.665 51.0159 205.55 51.4643 210.533 51.5361C242.236 51.9934 274.888 35.9234 297.967 11.9888C321.074 -11.9727 335.666 -42.8751 343.643 -75.1406" stroke="white" stroke-width="0.7" stroke-miterlimit="10"/>
<path opacity="0.54" d="M-142.16 358.05C-153.947 342.814 -148.551 319.507 -135.178 305.903C-133.986 304.683 -132.74 303.535 -131.449 302.45C-118.292 291.339 -100.939 286.443 -83.8919 283.251C-80.6114 282.641 -77.3041 282.076 -74.0057 281.529C-58.4997 278.964 -42.7518 276.57 -28.3124 270.167C-23.6427 268.095 -19.2239 265.665 -15.0472 262.858C13.2221 243.856 28.6205 209.232 39.0803 176.222C39.8421 173.828 40.5861 171.415 41.33 169.003C52.3366 133.366 64.6069 98.2485 86.5752 72.5025C94.7404 62.934 103.058 52.962 115.777 47.8056C130.906 41.6449 148.814 43.0259 164.616 46.1556C175.389 48.2809 185.742 51.1236 196.273 52.8992C201.221 53.7332 206.213 54.3161 211.313 54.5044C243.741 55.7061 277.406 39.3581 300.952 14.7958C324.525 -9.79343 339.143 -41.5926 347.129 -74.6562" stroke="white" stroke-width="0.7" stroke-miterlimit="10"/>
<path opacity="0.54" d="M-140.018 362.846C-151.804 347.637 -146.57 324.384 -133.368 310.646C-132.184 309.417 -130.957 308.251 -129.675 307.148C-116.652 295.903 -99.3979 290.8 -82.4041 287.411C-79.1326 286.756 -75.8432 286.164 -72.5537 285.581C-57.1016 282.846 -41.3984 280.308 -27.0038 273.834C-22.3521 271.744 -17.9423 269.287 -13.7834 266.471C14.4231 247.361 29.687 212.746 39.878 179.674C40.6219 177.27 41.3479 174.858 42.0649 172.446C52.7398 136.754 64.4634 101.583 85.4816 75.2635C93.5214 65.2018 101.705 54.6469 114.638 49.1946C130.037 42.6751 148.429 44.2714 164.535 47.7956C175.515 50.19 186.037 53.3914 196.766 55.4719C201.812 56.4494 206.903 57.1758 212.111 57.4807C245.265 59.4356 279.943 42.8096 303.954 17.6106C327.993 -7.61533 342.639 -40.3023 350.625 -74.1641" stroke="white" stroke-width="0.7" stroke-miterlimit="10"/>
<path opacity="0.54" d="M-137.876 367.636C-149.671 352.445 -144.598 329.255 -131.548 315.382C-130.383 314.145 -129.164 312.97 -127.9 311.849C-115.002 300.478 -97.8561 295.169 -80.9161 291.582C-77.6536 290.892 -74.3821 290.255 -71.1016 289.645C-55.7032 286.74 -40.0359 284.049 -25.6951 277.512C-21.0613 275.404 -16.6694 272.929 -12.5196 270.096C15.6153 250.878 30.7537 216.263 40.6758 183.137C41.3928 180.733 42.1009 178.312 42.8 175.9C53.1433 140.164 64.3022 104.921 84.3972 78.045C92.2936 67.4811 100.351 56.3433 113.509 50.5951C129.176 43.7169 148.052 45.5284 164.455 49.4562C175.631 52.1285 186.324 55.6707 197.25 58.0651C202.386 59.1861 207.576 60.047 212.9 60.4774C246.78 63.1767 282.47 46.2727 306.948 20.4459C331.453 -5.40775 346.125 -38.9915 354.12 -73.6514" stroke="white" stroke-width="0.7" stroke-miterlimit="10"/>
<path opacity="0.54" d="M-135.743 372.425C-147.538 357.261 -142.635 334.124 -129.746 320.126C-128.599 318.879 -127.389 317.687 -126.143 316.557C-113.38 305.051 -96.3325 299.536 -79.4462 295.752C-76.2016 295.025 -72.9301 294.353 -69.6586 293.698C-54.305 290.631 -38.6825 287.788 -24.3955 281.179C-19.7796 279.045 -15.3967 276.561 -11.2558 273.718C16.8163 254.393 31.8203 219.787 41.4824 186.598C42.1815 184.186 42.8717 181.764 43.5439 179.352C53.5556 143.571 64.1319 108.23 83.3127 80.8157C91.0657 69.7407 98.9979 58.038 112.371 51.9938C128.307 44.7659 147.658 46.7836 164.365 51.106C175.748 54.0474 186.602 57.9393 197.734 60.6476C202.96 61.921 208.257 62.9163 213.697 63.4634C248.303 66.9069 285.007 49.7339 309.951 23.2705C334.922 -3.21988 349.621 -37.6914 357.625 -73.1494" stroke="white" stroke-width="0.7" stroke-miterlimit="10"/>
<path opacity="0.54" d="M-133.601 377.214C-145.405 362.067 -140.654 338.994 -127.936 324.861C-126.798 323.596 -125.606 322.395 -124.369 321.256C-111.731 309.616 -94.7908 303.903 -77.9673 299.913C-74.7317 299.151 -71.4781 298.442 -68.2156 297.752C-52.9158 294.514 -37.3381 291.528 -23.0959 284.847C-18.4979 282.695 -14.1329 280.193 -10.001 277.332C18.0083 257.891 32.8779 223.293 42.2711 190.05C42.9523 187.638 43.6156 185.217 44.2699 182.787C53.9499 146.961 63.9078 111.503 82.2102 83.5779C89.8018 71.9917 97.6265 59.715 111.223 53.3749C127.428 45.7883 147.264 48.0212 164.266 52.7382C175.847 55.9486 186.871 60.1903 198.2 63.2124C203.524 64.6293 208.911 65.7682 214.468 66.4318C249.8 70.6286 287.516 53.1687 312.926 26.0775C338.363 -1.04063 353.09 -36.4089 361.102 -72.665" stroke="white" stroke-width="0.7" stroke-miterlimit="10"/>
<path opacity="0.54" d="M-131.459 382.011C-143.263 366.892 -138.683 343.863 -126.117 329.604C-124.996 328.331 -123.822 327.12 -122.594 325.964C-110.091 314.189 -93.2493 308.279 -76.4795 304.092C-73.2529 303.284 -70.0083 302.54 -66.7637 301.814C-51.5176 298.406 -35.9758 295.267 -21.7874 288.524C-17.2073 286.345 -12.8513 283.834 -8.7373 280.955C19.2093 261.406 33.9444 226.817 43.0688 193.512C43.732 191.09 44.3774 188.669 45.0048 186.239C54.3532 150.369 63.6836 114.794 81.1166 86.3486C88.538 74.2423 96.2731 61.4097 110.085 54.7736C126.559 46.8283 146.878 49.2765 164.186 54.388C175.972 57.8675 187.158 62.4678 198.684 65.7948C204.098 67.3642 209.592 68.6376 215.257 69.4178C251.315 74.3589 290.044 56.6299 315.92 28.902C341.823 1.14723 356.576 -35.1089 364.598 -72.1631" stroke="white" stroke-width="0.7" stroke-miterlimit="10"/>
<path opacity="0.54" d="M-129.316 386.8C-141.121 371.699 -136.711 348.733 -124.306 334.349C-123.195 333.066 -122.038 331.838 -120.819 330.672C-108.451 318.772 -91.7077 312.647 -74.9917 308.262C-71.774 307.419 -68.5473 306.639 -65.3117 305.876C-50.1194 302.298 -34.6134 299.016 -20.4788 292.201C-15.9166 290.004 -11.5696 287.475 -7.46454 284.578C20.4193 264.921 35.02 230.342 43.8754 196.974C44.5208 194.552 45.1392 192.122 45.7487 189.692C54.7655 153.777 63.4327 118.076 80.0321 89.129C87.2742 76.4936 94.9196 63.105 108.947 56.1819C125.69 47.8869 146.493 50.5413 164.096 56.0564C176.079 59.8049 187.436 64.755 199.168 68.3958C204.68 70.1087 210.273 71.5255 216.054 72.4223C252.839 78.1167 292.58 60.1008 318.923 31.7452C345.292 3.36264 360.072 -33.7902 368.094 -71.6426" stroke="white" stroke-width="0.7" stroke-miterlimit="10"/>
<path opacity="0.54" d="M-127.183 391.589C-138.996 376.514 -134.739 353.602 -122.495 339.083C-121.402 337.783 -120.255 336.546 -119.054 335.371C-106.81 323.336 -90.1749 317.014 -73.5128 312.432C-70.313 311.553 -67.0863 310.728 -63.8686 309.939C-48.7301 306.19 -33.269 302.765 -19.1702 295.877C-14.6259 293.662 -10.2968 291.107 -6.20074 288.201C21.6114 268.428 36.0866 233.857 44.6732 200.435C45.3006 198.005 45.9011 195.575 46.4837 193.144C55.1688 157.184 63.1638 121.341 78.9387 91.8999C85.9925 78.7354 93.5573 64.7998 107.808 57.5719C124.82 48.9181 146.107 51.7788 164.006 57.6974C176.196 61.7239 187.722 67.0148 199.643 70.9785C205.245 72.8348 210.937 74.3951 216.834 75.4085C254.353 81.8472 295.099 63.5622 321.907 34.5609C348.742 5.55068 363.549 -32.499 371.58 -71.1494" stroke="white" stroke-width="0.7" stroke-miterlimit="10"/>
<path opacity="0.54" d="M-125.041 396.377C-136.854 381.32 -132.767 358.471 -120.685 343.818C-119.609 342.508 -118.471 341.262 -117.288 340.069C-105.179 327.9 -88.6423 321.372 -72.0339 316.592C-68.843 315.677 -65.6343 314.816 -62.4166 313.982C-47.3319 310.072 -31.9066 306.485 -17.8616 299.526C-13.3353 297.285 -9.0151 294.72 -4.93694 291.805C22.8125 271.924 37.1443 237.363 45.4799 203.878C46.0804 201.448 46.6719 199.008 47.2366 196.569C55.5901 160.564 62.886 124.586 77.8631 94.6521C84.7108 80.9586 92.2129 66.4669 106.688 58.952C123.969 49.9396 145.74 53.0154 163.935 59.3287C176.33 63.6241 188.018 69.2648 200.136 73.5423C205.837 75.5511 211.627 77.246 217.641 78.3759C255.886 85.559 297.644 66.996 324.919 37.3669C352.22 7.71998 367.063 -31.2174 375.094 -70.666" stroke="white" stroke-width="0.7" stroke-miterlimit="10"/>
<path opacity="0.54" d="M-122.899 401.176C-134.721 386.146 -130.795 363.351 -118.874 348.563C-117.808 347.245 -116.688 345.98 -115.513 344.779C-103.53 332.484 -87.1007 325.749 -70.555 320.763C-67.3732 319.804 -64.1734 318.916 -60.9736 318.046C-45.9427 313.966 -30.5532 310.235 -16.562 303.205C-12.0536 300.945 -7.75139 298.362 -3.6822 295.43C24.0045 275.441 38.2018 240.88 46.2685 207.341C46.8511 204.902 47.4158 202.462 47.9625 200.023C55.9754 163.973 62.5632 127.861 76.7606 97.4336C83.4022 83.211 90.8504 68.1723 105.532 60.3525C123.081 50.9903 145.336 54.2725 163.836 60.9892C176.429 65.5537 188.287 71.5441 200.611 76.1355C206.401 78.2878 212.299 80.1261 218.421 81.3726C257.392 89.309 300.163 70.468 327.904 40.2023C355.671 9.92756 370.54 -29.9156 378.58 -70.1533" stroke="white" stroke-width="0.7" stroke-miterlimit="10"/>
<path opacity="0.54" d="M-120.757 405.964C-132.579 390.952 -128.814 368.21 -117.055 353.306C-116.006 351.978 -114.895 350.696 -113.739 349.485C-101.89 337.056 -85.5591 330.115 -69.0672 324.941C-65.8943 323.946 -62.7124 323.013 -59.5216 322.107C-44.5355 317.857 -29.1998 313.983 -15.2534 306.88C-10.763 304.594 -6.46973 302.002 -2.40949 299.051C25.2144 278.946 39.2774 244.403 47.0752 210.801C47.6398 208.362 48.1866 205.914 48.7064 203.475C56.3877 167.371 62.2405 131.124 75.676 100.203C82.0935 85.4427 89.497 69.857 104.402 61.7502C122.221 52.0293 144.96 55.5267 163.755 62.638C176.554 67.4716 188.574 73.8207 201.095 78.717C206.975 81.0127 212.971 82.9946 219.209 84.3576C258.906 93.0383 302.682 73.9193 330.897 43.0258C359.13 12.1144 374.027 -28.6165 382.076 -69.6523" stroke="white" stroke-width="0.7" stroke-miterlimit="10"/>
<path opacity="0.54" d="M-118.623 410.752C-130.455 395.767 -126.852 373.079 -115.253 358.04C-114.214 356.695 -113.12 355.413 -111.982 354.184C-100.267 341.621 -84.0353 334.482 -67.5972 329.102C-64.4422 328.071 -61.2604 327.102 -58.0875 326.161C-43.1552 321.74 -27.8553 317.722 -13.9627 310.548C-9.49018 308.243 -5.20586 305.634 -1.16356 302.665C26.3976 282.452 40.3261 247.909 47.855 214.254C48.4018 211.805 48.9216 209.357 49.4235 206.918C56.7732 170.77 61.8642 134.388 74.5647 102.974C80.7492 87.6845 88.1168 71.5518 103.246 63.1402C121.343 53.0606 144.557 56.7732 163.648 64.2791C176.644 69.3906 188.834 76.0804 201.561 81.2906C207.54 83.7388 213.634 85.8551 219.989 87.3348C260.412 96.7598 305.2 77.3718 333.882 45.8416C362.581 14.3025 377.505 -27.3252 385.553 -69.1592" stroke="white" stroke-width="0.7" stroke-miterlimit="10"/>
<path opacity="0.54" d="M-116.481 415.54C-128.312 400.573 -124.88 377.948 -113.434 362.774C-112.412 361.42 -111.336 360.12 -110.198 358.882C-98.6091 346.184 -82.4846 338.84 -66.1003 333.271C-62.9543 332.204 -59.7904 331.19 -56.6264 330.222C-41.7479 325.639 -26.4839 321.461 -12.6451 314.224C-8.19046 311.892 -3.92406 309.274 0.109285 306.287C27.5988 285.967 41.4017 251.432 48.6618 217.714C49.1906 215.266 49.6925 212.809 50.1676 210.361C57.1856 174.167 61.5147 137.66 73.4803 105.735C79.4138 89.9075 86.7634 73.2277 102.108 64.5291C120.473 54.0998 144.171 58.0186 163.567 65.9191C176.77 71.2997 189.121 78.3393 202.045 83.8633C208.113 86.455 214.307 88.7058 220.778 90.311C261.927 100.489 307.728 80.8143 336.876 48.6564C366.032 16.4806 380.991 -26.0349 389.049 -68.667" stroke="white" stroke-width="0.7" stroke-miterlimit="10"/>
<path opacity="0.54" d="M-114.339 420.339C-126.179 405.399 -122.899 382.828 -111.623 367.529C-110.62 366.166 -109.553 364.847 -108.433 363.601C-96.9779 350.777 -80.952 343.226 -64.6305 337.451C-61.4934 336.348 -58.3384 335.299 -55.1835 334.286C-40.3587 329.533 -25.1395 325.211 -11.3455 317.902C-6.90881 315.552 -2.65141 312.916 1.37297 309.912C28.7997 289.475 42.4683 254.958 49.4594 221.177C49.9703 218.72 50.4453 216.263 50.9024 213.815C57.5888 177.577 61.1292 140.944 72.3957 108.517C78.0782 92.1599 85.4189 74.9241 100.979 65.9296C119.613 55.1416 143.795 59.2756 163.487 67.5797C176.886 73.2293 189.407 80.6186 202.529 86.4565C208.696 89.2006 214.988 91.586 221.576 93.3078C263.451 104.23 310.264 84.2863 339.878 51.4917C369.501 18.6882 384.487 -24.7241 392.554 -68.1543" stroke="white" stroke-width="0.7" stroke-miterlimit="10"/>
<path opacity="0.54" d="M-112.197 425.127C-124.037 410.205 -120.927 387.696 -109.804 372.263C-108.809 370.882 -107.76 369.564 -106.649 368.29C-95.3196 355.332 -79.4013 347.575 -63.1335 341.602C-60.0144 340.455 -56.8684 339.379 -53.7224 338.329C-38.9514 333.406 -23.768 328.94 -10.0188 321.56C-5.60008 319.192 -1.36058 316.529 2.65483 313.525C30.0188 292.98 43.5529 258.464 50.2841 224.629C50.7771 222.172 51.2342 219.715 51.6644 217.257C58.0192 180.974 60.7619 144.225 71.3292 111.278C76.7429 94.383 84.0836 76.6092 99.8674 67.3187C118.77 56.172 143.436 60.5213 163.424 69.2199C177.03 75.1385 189.721 82.8865 203.04 89.0293C209.296 91.9169 215.696 94.4458 222.391 96.2842C264.992 107.96 312.819 87.7291 342.908 54.2978C372.996 20.8665 388.009 -23.4426 396.085 -67.6709" stroke="white" stroke-width="0.7" stroke-miterlimit="10"/>
<path opacity="0.54" d="M-110.064 429.916C-121.913 415.02 -118.955 392.556 -108.002 376.998C-107.025 375.608 -105.986 374.271 -104.892 372.989C-93.6975 359.896 -77.8778 351.942 -61.6638 345.772C-58.5536 344.589 -55.4166 343.468 -52.2885 342.392C-37.5712 337.298 -22.4238 332.68 -8.72836 325.237C-4.32753 322.842 -0.0970045 320.17 3.90049 317.148C31.2017 296.495 44.6014 261.988 51.0637 228.09C51.5298 225.624 51.969 223.167 52.3813 220.701C58.4044 184.373 60.3404 147.516 70.2176 114.049C75.3624 96.6249 82.7031 78.2951 98.702 68.7087C117.874 57.2122 143.024 61.7677 163.307 70.8609C177.11 77.0486 189.972 85.1463 203.488 91.603C209.834 94.6341 216.332 97.3064 223.144 99.2614C266.471 111.682 315.31 91.1726 345.865 57.1135C376.42 23.0455 391.46 -22.1513 399.545 -67.1777" stroke="white" stroke-width="0.7" stroke-miterlimit="10"/>
<path opacity="0.54" d="M-107.922 434.704C-119.771 419.827 -116.983 397.426 -106.192 381.732C-105.224 380.334 -104.202 378.979 -103.126 377.688C-92.0571 364.47 -76.345 356.309 -60.1848 349.933C-57.0836 348.714 -53.9645 347.557 -50.8453 346.436C-36.1819 341.172 -21.0793 336.41 -7.42863 328.895C-3.04573 326.483 1.17584 323.793 5.16437 320.753C32.4029 299.993 45.6591 265.485 51.8615 231.534C52.3097 229.068 52.7309 226.602 53.1163 224.135C58.8078 187.763 59.9193 150.807 69.1242 116.802C73.9822 98.8488 81.3497 79.972 97.5638 70.0896C117.004 58.2344 142.639 62.9963 163.227 72.5019C177.236 78.9676 190.259 87.4061 203.981 94.1767C210.426 97.3602 217.022 100.167 223.951 102.239C268.004 115.403 317.856 94.6251 348.877 59.9293C379.898 25.2336 394.965 -20.86 403.058 -66.6846" stroke="white" stroke-width="0.7" stroke-miterlimit="10"/>
<path opacity="0.54" d="M-105.779 439.502C-117.638 424.652 -115.011 402.305 -104.372 386.486C-103.422 385.078 -102.409 383.715 -101.343 382.405C-90.408 369.053 -74.7944 360.686 -58.688 354.122C-55.5957 352.866 -52.4856 351.664 -49.3844 350.517C-34.7657 345.091 -19.7079 340.177 -6.11106 332.59C-1.74608 330.151 2.45755 327.452 6.43712 324.394C33.6039 303.517 46.7347 269.028 52.6682 235.014C53.0984 232.538 53.4928 230.072 53.8603 227.606C59.2202 191.189 59.498 154.144 68.0397 119.6C72.6109 101.118 79.9964 81.6851 96.4345 71.5069C116.144 59.293 142.262 64.27 163.146 74.1703C177.361 80.905 190.546 89.6932 204.465 96.7776C210.999 100.105 217.704 103.055 224.74 105.243C269.519 119.161 320.384 98.0959 351.871 62.7724C383.358 27.44 398.451 -19.5414 406.545 -66.1641" stroke="white" stroke-width="0.7" stroke-miterlimit="10"/>
<path opacity="0.54" d="M-103.646 444.291C-115.504 429.458 -113.04 407.174 -102.571 391.221C-101.639 389.795 -100.635 388.423 -99.5862 387.104C-88.7858 373.617 -73.2709 365.053 -57.2271 358.282C-54.1528 356.982 -51.0516 355.754 -47.9504 354.561C-33.3856 348.965 -18.3636 343.898 -4.82054 336.249C-0.473496 333.792 3.72117 331.075 7.68281 327.999C34.7869 307.015 47.7832 272.525 53.4478 238.457C53.8601 235.982 54.2366 233.507 54.5772 231.041C59.6054 194.579 59.0407 157.453 66.9281 122.353C71.1945 103.351 78.6159 83.362 95.2691 72.8879C115.248 60.3242 141.85 65.5075 163.029 75.8023C177.442 82.806 190.797 91.944 204.913 99.3513C211.546 102.822 218.34 105.916 225.492 108.22C270.997 122.882 322.875 101.548 354.828 65.5882C386.781 29.628 401.902 -18.2501 410.004 -65.6709" stroke="white" stroke-width="0.7" stroke-miterlimit="10"/>
<path opacity="0.54" d="M-101.504 449.079C-113.362 434.274 -111.068 412.043 -100.751 395.955C-99.8281 394.52 -98.8511 393.13 -97.8025 391.803C-87.1275 378.181 -71.7202 369.411 -55.7302 362.452C-52.6649 361.116 -49.5726 359.852 -46.4894 358.623C-31.9783 352.857 -17.0011 347.647 -3.50287 339.926C0.835211 337.45 5.003 334.715 8.96464 331.63C36.006 310.539 48.8679 276.058 54.2725 241.927C54.6669 239.443 55.0165 236.968 55.3391 234.493C60.0357 197.977 58.6285 160.788 65.8617 125.133C69.8233 105.61 77.2805 85.0567 94.1578 74.2866C114.405 61.3642 141.491 66.7627 162.967 77.4521C177.585 84.7249 191.101 94.2216 205.424 101.934C212.147 105.557 219.048 108.785 226.317 111.206C272.548 126.613 325.439 105.001 357.858 68.4128C390.277 31.8159 405.433 -16.95 413.536 -65.1689" stroke="white" stroke-width="0.7" stroke-miterlimit="10"/>
<path opacity="0.54" d="M-99.3621 453.869C-112.287 437.763 -108.603 412.896 -96.0368 396.503C-83.4707 380.119 -64.1465 370.515 -45.0464 362.677C-25.9462 354.839 -6.00359 347.997 10.2284 335.245C39.1609 312.503 51.7091 274.489 56.0651 237.937C60.4301 201.376 58.1624 164.125 64.7592 127.905C68.4071 107.862 75.9181 86.7521 93.0105 75.6861C113.527 62.405 141.097 68.0188 162.877 79.1117C184.657 90.2047 203.99 106.248 227.097 114.202C274.054 130.362 327.957 108.472 360.842 71.2471C393.728 34.0225 408.911 -15.6402 417.022 -64.6572" stroke="white" stroke-width="0.7" stroke-miterlimit="10"/>
</g>
<g opacity="0.32">
<path opacity="0.54" d="M278.096 278.843C285.161 269.524 280.836 255.127 271.726 247.805C262.617 240.477 250.347 238.615 238.676 237.951C227.005 237.282 215.005 237.487 204.067 233.37C181.431 224.844 169.41 200.616 160.165 178.254C150.921 155.893 140.625 131.378 119.068 120.397C102.166 111.79 82.0538 113.576 63.4576 109.853C30.9952 103.356 2.89056 78.3721 -7.36754 46.875" stroke="white" stroke-width="0.7" stroke-miterlimit="10"/>
<path opacity="0.54" d="M276.807 281.725C283.872 272.422 279.644 258.057 270.631 250.654C269.828 249.99 268.992 249.375 268.14 248.792C259.435 242.9 248.373 241.178 237.786 240.455C235.742 240.315 233.687 240.202 231.632 240.088C221.984 239.56 212.27 239.009 203.285 235.572C200.373 234.46 197.633 233.084 195.055 231.487C177.656 220.722 167.581 199.839 159.691 180.326C159.119 178.907 158.542 177.483 157.96 176.053C149.336 154.884 139.272 132.943 119.737 122.054C114.15 118.94 108.211 116.803 101.874 115.476C94.3938 113.906 86.5249 113.469 78.807 112.956C73.5378 112.605 68.3116 112.211 63.1718 111.396C60.7556 111.013 58.3555 110.528 55.9771 109.934C40.8326 106.162 26.6644 97.9925 15.306 87.0222C3.92073 76.0249 -4.7032 62.2702 -9.4709 47.1719" stroke="white" stroke-width="0.7" stroke-miterlimit="10"/>
<path opacity="0.54" d="M275.518 284.607C282.588 275.315 278.457 260.988 269.542 253.504C268.744 252.835 267.919 252.209 267.072 251.621C258.448 245.652 247.446 243.807 236.891 242.96C234.852 242.798 232.808 242.663 230.759 242.528C221.142 241.897 211.45 241.26 202.498 237.779C199.596 236.652 196.862 235.27 194.289 233.662C176.928 222.827 166.934 201.949 159.205 182.405C158.644 180.985 158.078 179.555 157.512 178.125C149.087 156.929 139.272 135.183 120.384 123.722C114.867 120.371 109.02 117.818 102.554 116.313C94.9115 114.532 86.7514 114.219 78.8555 113.944C73.4676 113.755 68.139 113.572 62.8805 112.946C60.405 112.649 57.951 112.25 55.5025 111.726C39.9211 108.402 25.1434 100.065 13.5046 88.7118C1.83884 77.3368 -6.80124 63.0425 -11.5689 47.4639" stroke="white" stroke-width="0.7" stroke-miterlimit="10"/>
<path opacity="0.54" d="M274.234 287.488C281.305 278.212 277.276 263.917 268.453 256.357C267.665 255.683 266.851 255.046 266.009 254.453C257.461 248.404 246.523 246.434 236.001 245.468C233.973 245.285 231.929 245.123 229.89 244.966C220.306 244.232 210.642 243.509 201.716 239.986C198.825 238.847 196.101 237.455 193.534 235.841C176.216 224.941 166.298 204.069 158.731 184.487C158.181 183.062 157.631 181.632 157.075 180.202C148.85 158.974 139.277 137.405 121.048 125.388C115.595 121.794 109.846 118.837 103.244 117.154C95.4401 115.157 86.9888 114.974 78.915 114.941C73.403 114.914 67.9773 114.947 62.6002 114.504C60.0707 114.299 57.552 113.981 55.0387 113.528C39.0205 110.651 23.6334 102.153 11.7141 90.416C-0.23209 78.6579 -8.88837 63.8294 -13.6615 47.7705" stroke="white" stroke-width="0.7" stroke-miterlimit="10"/>
<path opacity="0.54" d="M272.945 290.374C280.016 281.108 276.084 266.852 267.363 259.211C266.581 258.526 265.777 257.889 264.947 257.285C256.479 251.155 245.601 249.066 235.111 247.982C233.089 247.771 231.055 247.593 229.017 247.415C219.465 246.579 209.822 245.764 200.923 242.202C198.043 241.048 195.324 239.65 192.768 238.026C175.488 227.061 165.656 206.189 158.24 186.574C157.701 185.149 157.161 183.714 156.622 182.279C148.597 161.023 139.272 139.595 121.695 127.06C116.312 123.218 110.649 119.856 103.918 118C95.947 115.788 87.2098 115.734 78.958 115.939C73.3274 116.079 67.7992 116.316 62.298 116.063C59.7146 115.944 57.1312 115.707 54.5478 115.329C38.0928 112.906 22.0962 104.235 9.89649 92.1203C-2.33018 79.9844 -11.0026 64.6162 -15.7811 48.0771" stroke="white" stroke-width="0.7" stroke-miterlimit="10"/>
<path opacity="0.54" d="M271.656 293.257C278.732 284.008 274.898 269.778 266.274 262.062C265.502 261.371 264.704 260.724 263.879 260.114C255.492 253.903 244.673 251.696 234.216 250.487C232.199 250.255 230.171 250.055 228.143 249.856C218.624 248.917 209.002 248.016 200.135 244.411C197.266 243.245 194.559 241.837 192.002 240.202C174.76 229.167 165.009 208.306 157.755 188.653C157.226 187.223 156.703 185.793 156.174 184.352C148.349 163.07 139.277 141.755 122.347 128.724C117.024 124.628 111.464 120.872 104.603 118.833C96.4702 116.41 87.4418 116.48 79.0066 116.922C73.2519 117.225 67.6213 117.672 62.0068 117.608C59.3641 117.575 56.7268 117.424 54.0733 117.117C37.1814 115.142 20.5753 106.308 8.09516 93.8108C-4.40657 81.2918 -13.1006 65.3895 -17.8845 48.3701" stroke="white" stroke-width="0.7" stroke-miterlimit="10"/>
<path opacity="0.54" d="M270.367 296.137C277.443 286.899 273.711 272.707 265.179 264.91C264.418 264.214 263.625 263.555 262.811 262.94C254.5 256.654 243.746 254.317 233.326 252.995C231.314 252.742 229.297 252.515 227.274 252.294C217.788 251.258 208.193 250.265 199.353 246.617C196.495 245.435 193.793 244.016 191.247 242.376C174.042 231.276 164.372 210.415 157.28 190.73C156.762 189.3 156.25 187.864 155.737 186.423C148.111 165.114 139.293 143.886 123.011 130.39C117.752 126.035 112.289 121.886 105.294 119.673C96.9987 117.035 87.679 117.234 79.0659 117.92C73.1925 118.384 67.4594 119.042 61.7263 119.166C59.0297 119.226 56.3276 119.155 53.604 118.918C36.2752 117.391 19.0597 108.39 6.29912 95.515C-6.48306 82.6183 -15.1933 66.1764 -19.9826 48.6768" stroke="white" stroke-width="0.7" stroke-miterlimit="10"/>
<path opacity="0.54" d="M269.084 299.019C276.165 289.797 272.525 275.638 264.095 267.765C263.34 267.063 262.558 266.399 261.749 265.773C253.518 259.406 242.823 256.951 232.436 255.505C230.435 255.229 228.418 254.981 226.406 254.738C216.946 253.6 207.379 252.515 198.571 248.83C195.724 247.637 193.027 246.207 190.492 244.556C173.325 233.391 163.736 212.535 156.805 192.813C156.304 191.377 155.802 189.942 155.301 188.501C147.874 167.165 139.326 145.996 123.674 132.058C118.48 127.433 113.114 122.906 105.984 120.51C97.5273 117.655 87.9164 117.985 79.1252 118.907C73.1279 119.533 67.2977 120.402 61.4405 120.715C58.6845 120.861 55.9285 120.877 53.1348 120.71C35.3692 119.636 17.5442 110.468 4.50316 97.2095C-8.55947 83.9297 -17.2859 66.9535 -22.0751 48.9736" stroke="white" stroke-width="0.7" stroke-miterlimit="10"/>
<path opacity="0.54" d="M267.795 301.907C274.876 292.701 271.338 278.574 263 270.62C262.256 269.908 261.479 269.239 260.681 268.607C252.526 262.159 241.901 259.58 231.541 258.015C229.545 257.713 227.539 257.443 225.532 257.178C216.105 255.937 206.559 254.766 197.784 251.038C194.942 249.834 192.261 248.394 189.726 246.737C172.602 235.502 163.089 214.652 156.32 194.896C155.829 193.461 155.338 192.02 154.853 190.574C147.631 169.211 139.353 148.085 124.327 133.726C119.198 128.826 113.923 123.921 106.669 121.353C98.0504 118.288 88.1483 118.741 79.1792 119.901C73.0632 120.689 67.1305 121.774 61.1547 122.275C58.3448 122.508 55.5241 122.61 52.6656 122.513C34.4631 121.887 16.0341 112.552 2.70723 98.9157C-10.6359 85.2581 -19.3785 67.7369 -24.1731 49.2822" stroke="white" stroke-width="0.7" stroke-miterlimit="10"/>
<path opacity="0.54" d="M266.505 304.788C273.592 295.593 270.146 281.504 261.91 273.469C261.171 272.751 260.406 272.071 259.618 271.435C251.544 264.911 240.979 262.207 230.651 260.524C228.661 260.2 226.66 259.908 224.659 259.622C215.264 258.279 205.744 257.021 196.996 253.25C194.165 252.03 191.49 250.584 188.966 248.917C171.88 237.617 162.447 216.772 155.834 196.979C155.354 195.544 154.88 194.097 154.405 192.651C147.383 171.261 139.39 150.151 124.979 135.398C119.92 130.218 114.737 124.941 107.348 122.194C98.5681 118.913 88.3747 119.491 79.2223 120.894C72.9822 121.849 66.9524 123.138 60.8526 123.829C57.9887 124.153 55.1033 124.336 52.1747 124.309C33.5354 124.137 14.4969 114.634 0.88958 100.615C-12.734 86.5798 -21.4981 68.519 -26.2927 49.584" stroke="white" stroke-width="0.7" stroke-miterlimit="10"/>
<path opacity="0.54" d="M265.217 307.669C272.303 298.49 268.959 284.428 260.821 276.323C260.093 275.6 259.338 274.915 258.55 274.267C250.552 267.662 240.051 264.835 229.755 263.032C227.776 262.687 225.781 262.374 223.785 262.066C214.422 260.626 204.925 259.271 196.209 255.462C193.388 254.231 190.724 252.774 188.205 251.096C171.157 239.732 161.805 218.892 155.354 199.061C154.885 197.621 154.421 196.174 153.963 194.728C147.14 173.311 139.444 152.196 125.637 137.065C120.648 131.599 115.557 125.96 108.033 123.035C99.0913 119.539 88.6067 120.246 79.2762 121.892C72.9121 123.009 66.7853 124.509 60.5668 125.388C57.6436 125.798 54.7042 126.068 51.7055 126.111C32.6293 126.386 12.9815 116.717 -0.90636 102.314C-14.8104 87.896 -23.5907 69.301 -28.3908 49.8857" stroke="white" stroke-width="0.7" stroke-miterlimit="10"/>
<path opacity="0.54" d="M263.933 310.551C271.025 301.383 267.778 287.359 259.732 279.173C259.014 278.439 258.265 277.748 257.488 277.095C249.571 270.409 239.129 267.463 228.871 265.542C226.897 265.175 224.907 264.835 222.922 264.506C213.592 262.963 204.116 261.522 195.427 257.669C192.617 256.423 189.958 254.96 187.445 253.271C170.434 241.837 161.169 221.003 154.875 201.139C154.416 199.699 153.969 198.247 153.521 196.796C146.898 175.351 139.514 154.22 126.295 138.728C121.382 132.97 116.377 126.97 108.724 123.867C99.62 120.16 88.8441 120.991 79.3357 122.874C72.8529 124.153 66.6236 125.864 60.2865 126.932C57.3093 127.434 54.3053 127.785 51.2365 127.898C31.7234 128.621 11.4661 118.784 -2.70219 104.004C-16.8866 89.2078 -25.6832 70.0732 -30.4886 50.1777" stroke="white" stroke-width="0.7" stroke-miterlimit="10"/>
<path opacity="0.54" d="M262.644 313.438C269.736 304.286 266.586 290.294 258.642 282.027C257.93 281.288 257.191 280.587 256.42 279.923C248.584 273.156 238.201 270.086 227.976 268.046C226.007 267.652 224.028 267.296 222.048 266.945C212.75 265.299 203.301 263.772 194.64 259.876C191.84 258.619 189.187 257.14 186.684 255.446C169.712 243.947 160.527 223.118 154.395 203.217C153.947 201.771 153.51 200.319 153.079 198.868C146.655 177.391 139.601 156.228 126.953 140.39C122.115 134.336 117.191 127.984 109.409 124.704C100.143 120.781 89.076 121.741 79.3842 123.862C72.7773 125.303 66.4456 127.229 59.9897 128.481C56.9533 129.069 53.8899 129.506 50.7564 129.69C30.8065 130.866 9.93969 120.862 -4.50903 105.698C-18.9739 90.5192 -27.7866 70.8503 -32.5921 50.4746" stroke="white" stroke-width="0.7" stroke-miterlimit="10"/>
<path opacity="0.54" d="M261.355 316.319C268.452 307.178 265.4 293.223 257.547 284.876C256.846 284.131 256.113 283.424 255.352 282.75C247.591 275.907 237.274 272.713 227.08 270.554C225.117 270.139 223.149 269.756 221.175 269.389C211.909 267.64 202.481 266.022 193.852 262.088C191.064 260.82 188.421 259.33 185.924 257.625C168.994 246.061 159.885 225.232 153.914 205.299C153.483 203.853 153.057 202.396 152.636 200.944C146.412 179.441 139.698 158.234 127.606 142.062C122.854 135.705 118.006 129.003 110.088 125.544C100.661 121.406 89.3024 122.496 79.4326 124.859C72.7071 126.467 66.2729 128.599 59.6984 130.039C56.608 130.714 53.4853 131.232 50.2816 131.491C29.8949 133.115 8.41864 122.944 -6.31054 107.403C-21.0559 91.8457 -29.8848 71.6372 -34.6956 50.7812" stroke="white" stroke-width="0.7" stroke-miterlimit="10"/>
<path opacity="0.54" d="M260.071 319.201C267.169 310.076 264.219 296.154 256.463 287.731C255.773 286.981 255.045 286.263 254.295 285.583C246.615 278.66 236.357 275.341 226.196 273.064C224.243 272.627 222.275 272.222 220.306 271.828C211.068 269.983 201.667 268.272 193.07 264.295C190.292 263.011 187.655 261.516 185.163 259.806C168.271 248.177 159.243 227.354 153.429 207.382C153.008 205.931 152.593 204.474 152.189 203.022C146.164 181.492 139.8 160.226 128.258 143.73C123.593 137.066 118.82 130.024 110.773 126.387C101.184 122.038 89.5397 123.252 79.4866 125.853C72.637 127.622 66.1057 129.964 59.4072 131.594C56.2629 132.36 53.0754 132.959 49.8017 133.288C28.9781 135.361 6.89239 125.027 -8.11723 109.103C-23.143 93.1629 -31.9881 72.4202 -36.8043 51.084" stroke="white" stroke-width="0.7" stroke-miterlimit="10"/>
<path opacity="0.54" d="M258.782 322.083C265.885 312.969 263.027 299.085 255.374 290.58C254.689 289.82 253.972 289.096 253.227 288.411C245.623 281.407 235.429 277.97 225.306 275.568C223.359 275.11 221.401 274.683 219.438 274.268C210.232 272.32 200.858 270.523 192.288 266.503C189.521 265.208 186.895 263.702 184.408 261.981C167.554 250.282 158.607 229.464 152.955 209.461C152.545 208.009 152.146 206.552 151.752 205.09C145.927 183.532 139.935 162.196 128.922 145.392C124.354 138.421 119.645 131.033 111.464 127.218C101.713 122.653 89.7771 123.997 79.546 126.835C72.5778 128.767 65.944 131.319 59.1268 133.138C55.9232 133.991 52.6818 134.676 49.3379 135.075C28.0775 137.601 5.38235 127.094 -9.90773 110.793C-25.214 94.4747 -34.0752 73.1925 -38.8968 51.376" stroke="white" stroke-width="0.7" stroke-miterlimit="10"/>
<path opacity="0.54" d="M257.493 324.969C264.596 315.872 261.84 302.014 254.279 293.435C253.605 292.668 252.898 291.94 252.159 291.244C244.636 284.159 234.502 280.603 224.411 278.083C222.469 277.597 220.517 277.149 218.564 276.712C209.39 274.661 200.038 272.773 191.501 268.715C188.745 267.404 186.123 265.893 183.648 264.161C166.831 252.397 157.965 231.584 152.474 211.543C152.075 210.086 151.687 208.629 151.309 207.167C145.684 185.582 140.07 164.176 129.58 147.059C125.114 139.775 120.46 132.053 112.149 128.06C102.236 123.279 90.0089 124.752 79.5944 127.828C72.5022 129.921 65.7713 132.69 58.8355 134.692C55.5779 135.636 52.2718 136.402 48.8632 136.872C27.1658 139.845 3.86129 129.177 -11.7092 112.492C-27.296 95.791 -36.1734 73.9745 -41.0004 51.6777" stroke="white" stroke-width="0.7" stroke-miterlimit="10"/>
<path opacity="0.54" d="M256.204 327.851C263.307 318.764 260.654 304.945 253.189 296.29C252.521 295.518 251.825 294.779 251.091 294.077C243.649 286.917 233.574 283.231 223.515 280.592C221.579 280.085 219.638 279.616 217.691 279.157C208.549 277.004 199.218 275.029 190.713 270.928C187.968 269.606 185.352 268.084 182.882 266.341C166.103 254.513 157.318 233.705 151.989 213.626C151.601 212.17 151.229 210.707 150.862 209.245C145.436 187.633 140.221 166.151 130.232 148.733C125.875 141.13 121.274 133.073 112.834 128.907C102.759 123.916 90.2409 125.513 79.6484 128.832C72.4375 131.087 65.6042 134.066 58.5443 136.257C55.2274 137.288 51.862 138.14 48.3833 138.68C26.2491 142.106 2.3351 131.266 -13.5159 114.203C-29.383 97.1243 -38.2766 74.7682 -43.1037 51.9912" stroke="white" stroke-width="0.7" stroke-miterlimit="10"/>
<path opacity="0.54" d="M254.921 330.731C262.029 321.66 259.467 307.873 252.1 299.137C251.442 298.354 250.752 297.61 250.029 296.903C242.662 289.661 232.652 285.857 222.625 283.1C220.7 282.571 218.758 282.074 216.822 281.6C207.713 279.344 198.409 277.283 189.926 273.138C187.191 271.806 184.586 270.268 182.121 268.519C165.386 256.621 156.676 235.819 151.509 215.708C151.131 214.245 150.77 212.783 150.419 211.32C145.193 189.682 140.383 168.114 130.89 150.398C126.646 142.477 122.094 134.091 113.518 129.742C103.282 124.535 90.4727 126.256 79.7022 129.818C72.3673 132.24 65.4315 135.424 58.2583 137.809C54.8875 138.926 51.4628 139.865 47.914 140.475C25.3375 144.349 0.819426 133.347 -15.312 115.896C-31.4596 98.4391 -40.3694 75.5434 -45.2018 52.2861" stroke="white" stroke-width="0.7" stroke-miterlimit="10"/>
<path opacity="0.54" d="M253.632 333.614C260.74 324.554 258.281 310.805 251.01 301.988C250.363 301.2 249.678 300.45 248.966 299.732C241.68 292.41 231.729 288.481 221.735 285.605C219.815 285.055 217.885 284.537 215.948 284.035C206.871 281.682 197.59 279.524 189.138 275.336C186.415 273.987 183.815 272.444 181.361 270.69C164.663 258.727 156.039 237.93 151.024 217.781C150.662 216.319 150.306 214.851 149.967 213.383C144.94 191.718 140.55 170.069 131.538 152.057C127.417 143.817 122.903 135.097 114.193 130.575C103.794 125.151 90.6939 127.002 79.7454 130.801C72.2864 133.386 65.2535 136.78 57.9618 139.354C54.5316 140.563 51.0475 141.583 47.4286 142.263C24.4153 146.585 -0.712219 135.415 -17.1241 117.586C-33.5522 99.7466 -42.4835 76.3166 -47.3159 52.5791" stroke="white" stroke-width="0.7" stroke-miterlimit="10"/>
<path opacity="0.54" d="M252.343 336.502C259.456 327.458 257.094 313.741 249.921 304.843C249.279 304.05 248.605 303.289 247.899 302.566C240.688 295.168 230.802 291.115 220.846 288.115C218.931 287.538 217.006 287.004 215.08 286.48C206.036 284.025 196.775 281.78 188.356 277.55C185.643 276.19 183.055 274.636 180.606 272.871C163.946 260.843 155.403 240.047 150.549 219.865C150.198 218.397 149.859 216.93 149.53 215.462C144.708 193.769 140.744 172.039 132.201 153.73C128.204 145.172 123.723 136.123 114.888 131.417C104.328 125.784 90.9366 127.759 79.8048 131.8C72.2272 134.547 65.0918 138.152 57.676 140.915C54.1919 142.21 50.6431 143.316 46.9594 144.066C23.5092 148.841 -2.22772 137.504 -18.9201 119.292C-35.6286 101.075 -44.5761 77.1001 -49.4139 52.8877" stroke="white" stroke-width="0.7" stroke-miterlimit="10"/>
<path opacity="0.54" d="M251.054 339.382C258.167 330.349 255.902 316.665 248.826 307.696C248.195 306.898 247.526 306.126 246.831 305.398C239.701 297.919 229.874 293.742 219.95 290.628C218.041 290.029 216.126 289.468 214.206 288.923C205.189 286.365 195.961 284.034 187.569 279.761C184.867 278.385 182.283 276.825 179.84 275.05C163.218 262.952 154.756 242.166 150.064 221.947C149.724 220.479 149.395 219.006 149.082 217.538C144.46 195.813 140.938 174.002 132.854 155.396C128.992 146.514 124.537 137.136 115.568 132.258C104.846 126.408 91.1631 128.513 79.8533 132.792C72.1516 135.701 64.9192 139.521 57.3847 142.467C53.8467 143.849 50.2385 145.041 46.4848 145.861C22.5978 151.085 -3.74324 139.58 -20.7214 120.991C-37.7104 102.39 -46.6741 77.8811 -51.5173 53.1885" stroke="white" stroke-width="0.7" stroke-miterlimit="10"/>
<path opacity="0.54" d="M249.77 342.265C256.889 333.248 254.721 319.596 247.742 310.547C247.116 309.737 246.459 308.965 245.774 308.226C238.724 300.666 228.957 296.371 219.066 293.133C217.167 292.513 215.253 291.93 213.343 291.363C204.358 288.703 195.152 286.286 186.792 281.969C184.101 280.582 181.523 279.012 179.09 277.226C162.506 265.063 154.125 244.277 149.594 224.025C149.265 222.552 148.953 221.079 148.651 219.611C144.228 197.859 141.165 175.967 133.522 157.065C129.801 147.864 125.368 138.157 116.264 133.095C105.374 127.03 91.4058 129.264 79.918 133.781C72.0977 136.856 64.7627 140.882 57.1042 144.017C53.5069 145.49 49.8394 146.764 46.0155 147.654C21.6916 153.325 -5.25881 141.659 -22.5175 122.686C-39.7869 103.708 -48.7668 78.6592 -53.61 53.4863" stroke="white" stroke-width="0.7" stroke-miterlimit="10"/>
<path opacity="0.54" d="M248.481 345.146C255.6 336.139 253.535 322.525 246.647 313.395C246.032 312.58 245.385 311.797 244.7 311.053C237.727 303.412 228.024 298.993 218.165 295.642C216.272 294.999 214.368 294.39 212.464 293.807C203.511 291.049 194.327 288.535 185.999 284.18C183.319 282.777 180.752 281.202 178.325 279.405C161.783 267.177 153.478 246.397 149.109 226.107C148.791 224.634 148.489 223.156 148.203 221.682C143.98 199.904 141.375 177.936 134.175 158.726C130.604 149.202 126.182 139.165 116.949 133.931C105.898 127.655 91.6377 130.013 79.9665 134.767C72.0221 138.005 64.5901 142.241 56.813 145.565C53.1617 147.124 49.4349 148.479 45.5409 149.445C20.7802 155.569 -6.77977 143.73 -24.3189 124.38C-41.8634 105.018 -50.8648 79.4354 -55.7134 53.7822" stroke="white" stroke-width="0.7" stroke-miterlimit="10"/>
<path opacity="0.54" d="M247.192 348.033C254.317 339.043 252.343 325.461 245.558 316.255C244.954 315.435 244.312 314.641 243.638 313.891C236.745 306.175 227.102 301.631 217.281 298.156C215.393 297.492 213.494 296.861 211.596 296.251C202.675 293.391 193.518 290.79 185.217 286.393C182.548 284.979 179.986 283.392 177.564 281.585C161.061 269.287 152.836 248.517 148.629 228.19C148.322 226.712 148.036 225.233 147.761 223.76C143.737 201.954 141.607 179.911 134.827 160.399C131.408 150.556 126.991 140.185 117.628 134.773C106.415 128.281 91.8642 130.769 80.0151 135.765C71.952 139.165 64.4176 143.611 56.5217 147.124C52.8111 148.775 49.025 150.211 45.0609 151.247C19.8633 157.819 -8.30605 145.818 -26.1256 126.085C-43.9505 106.346 -52.9682 80.2232 -57.8222 54.0898" stroke="white" stroke-width="0.7" stroke-miterlimit="10"/>
<path opacity="0.54" d="M245.903 350.914C253.028 341.935 251.156 328.39 244.463 319.104C243.864 318.273 243.233 317.479 242.565 316.713C235.747 308.916 226.169 304.248 216.38 300.654C214.503 299.964 212.61 299.316 210.717 298.685C201.829 295.722 192.692 293.035 184.419 288.594C181.76 287.169 179.209 285.567 176.793 283.759C160.327 271.397 152.183 250.627 148.133 230.267C147.836 228.789 147.561 227.31 147.302 225.832C143.478 203.999 141.828 181.886 135.469 162.06C132.212 151.894 127.795 141.199 118.297 135.609C106.922 128.901 92.08 131.518 80.0529 136.753C71.8658 140.314 64.2289 144.976 56.2144 148.673C52.4498 150.41 48.599 151.932 44.5702 153.038C18.9357 160.064 -9.84306 147.89 -27.9485 127.773C-46.0538 107.657 -55.0877 80.9945 -59.9471 54.3809" stroke="white" stroke-width="0.7" stroke-miterlimit="10"/>
<path opacity="0.54" d="M244.619 353.796C251.749 344.833 249.97 331.316 243.379 321.954C242.791 321.117 242.165 320.313 241.507 319.542C234.771 311.663 225.252 306.877 215.495 303.164C213.624 302.452 211.736 301.778 209.854 301.13C200.998 298.065 191.883 295.286 183.642 290.807C180.994 289.367 178.449 287.759 176.043 285.94C159.615 273.513 151.552 252.749 147.664 232.351C147.383 230.867 147.119 229.389 146.871 227.905C143.246 206.045 142.081 183.867 136.138 163.729C133.042 153.244 128.625 142.215 118.998 136.446C107.462 129.528 92.328 132.269 80.1229 137.741C71.8172 141.464 64.0778 146.337 55.9446 150.222C52.1262 152.046 48.216 153.654 44.1171 154.831C18.0457 162.304 -11.3425 149.963 -29.7283 129.469C-48.1142 108.969 -57.1642 81.7726 -62.029 54.6787" stroke="white" stroke-width="0.7" stroke-miterlimit="10"/>
<path opacity="0.54" d="M243.331 356.676C250.46 347.724 248.783 334.244 242.29 324.801C241.707 323.959 241.092 323.144 240.445 322.367C233.784 314.414 224.33 309.503 214.606 305.666C212.74 304.933 210.863 304.236 208.986 303.562C200.162 300.394 191.075 297.529 182.861 293.007C180.223 291.556 177.683 289.937 175.283 288.107C158.893 275.615 150.916 254.851 147.184 234.421C146.914 232.938 146.661 231.454 146.429 229.97C143.004 208.083 142.335 185.846 136.796 165.384C133.873 154.581 129.44 143.222 119.683 137.275C107.985 130.142 92.5601 133.007 80.1716 138.727C71.7418 142.617 63.9053 147.695 55.6481 151.769C51.7703 153.685 47.8009 155.374 43.6318 156.62C17.1236 164.542 -12.8741 152.039 -31.5404 131.161C-50.2067 110.284 -59.2728 82.5478 -64.143 54.9736" stroke="white" stroke-width="0.7" stroke-miterlimit="10"/>
<path opacity="0.54" d="M242.041 359.563C249.177 350.627 247.596 337.18 241.195 327.661C240.623 326.814 240.013 325.994 239.372 325.206C232.792 317.171 223.397 312.137 213.705 308.187C211.844 307.431 209.973 306.708 208.107 306.018C199.31 302.753 190.249 299.796 182.068 295.231C179.441 293.763 176.912 292.139 174.517 290.299C158.17 277.737 150.268 256.983 146.698 236.516C146.439 235.026 146.202 233.542 145.981 232.058C142.756 210.145 142.588 187.853 137.449 167.068C134.698 155.946 130.254 144.253 120.362 138.128C108.503 130.779 92.7864 133.774 80.22 139.731C71.6661 143.783 63.7326 149.072 55.3567 153.335C51.425 155.336 47.3908 157.112 43.157 158.428C16.212 166.803 -14.3952 154.128 -33.3419 132.872C-52.2887 111.612 -61.371 83.3415 -66.2412 55.2871" stroke="white" stroke-width="0.7" stroke-miterlimit="10"/>
<path opacity="0.54" d="M240.758 362.446C247.893 353.521 246.41 340.111 240.111 330.512C239.55 329.654 238.946 328.828 238.315 328.035C231.816 319.919 222.48 314.766 212.826 310.692C210.976 309.909 209.11 309.17 207.244 308.452C198.48 305.085 189.44 302.036 181.291 297.434C178.675 295.955 176.151 294.32 173.767 292.469C157.458 279.842 149.638 259.089 146.229 238.589C145.981 237.1 145.755 235.61 145.55 234.126C142.524 212.186 142.864 189.846 138.118 168.725C135.55 157.291 131.085 145.263 121.064 138.96C109.042 131.4 93.0348 134.519 80.2903 140.714C71.6179 144.928 63.5818 150.427 55.0873 154.884C51.0962 156.973 47.0081 158.834 42.7042 160.221C15.3223 169.044 -15.8942 156.206 -35.1214 134.568C-54.3487 112.929 -63.4472 84.1196 -68.3228 55.585" stroke="white" stroke-width="0.7" stroke-miterlimit="10"/>
<path opacity="0.54" d="M239.469 365.327C246.604 356.418 245.223 343.041 239.016 333.36C238.46 332.497 237.872 331.661 237.241 330.862C230.818 322.665 221.547 317.388 211.925 313.201C210.08 312.396 208.22 311.636 206.364 310.896C197.633 307.427 188.62 304.292 180.498 299.645C177.888 298.156 175.38 296.51 172.996 294.654C156.724 281.962 148.985 261.214 145.733 240.677C145.495 239.182 145.285 237.693 145.091 236.203C142.265 214.23 143.112 191.853 138.759 170.398C136.375 158.65 131.888 146.282 121.732 139.802C109.549 132.026 93.2503 135.274 80.3279 141.707C71.5314 146.083 63.3982 151.797 54.7797 156.438C50.7347 158.618 46.5818 160.561 42.2078 162.018C14.389 171.288 -17.437 158.283 -36.9446 136.267C-56.4523 114.246 -65.5724 84.9016 -70.448 55.8867" stroke="white" stroke-width="0.7" stroke-miterlimit="10"/>
<path opacity="0.54" d="M238.18 368.208C245.957 358.516 243.74 343.553 236.179 333.689C228.618 323.83 216.99 318.051 205.496 313.335C194.003 308.618 182.003 304.501 172.236 296.828C154.826 283.143 147.275 260.269 144.654 238.275C142.028 216.275 143.392 193.859 139.423 172.064C137.228 160.004 132.708 147.301 122.423 140.643C110.078 132.651 93.4877 136.029 80.382 142.704C67.2762 149.379 55.6428 159.033 41.7388 163.819C13.4832 173.543 -18.9523 160.371 -38.7404 137.972C-58.5285 115.572 -67.6648 85.6885 -72.5458 56.1934" stroke="white" stroke-width="0.7" stroke-miterlimit="10"/>
</g>
<path opacity="0.4" d="M332.863 66.273C342.88 66.273 351 58.1529 351 48.1365C351 38.1196 342.88 30 332.863 30C322.847 30 314.727 38.1196 314.727 48.1365C314.727 58.1529 322.847 66.273 332.863 66.273Z" fill="white"/>
<path opacity="0.859468" d="M310.294 66.273C320.311 66.273 328.43 58.1529 328.43 48.1365C328.43 38.1196 320.311 30 310.294 30C300.277 30 292.157 38.1196 292.157 48.1365C292.157 58.1529 300.277 66.273 310.294 66.273Z" fill="white"/>
<path fill-rule="evenodd" clip-rule="evenodd" d="M334.279 190.824C333.3 190.433 331.748 190 329.829 190C324.929 190 321.479 192.636 321.457 196.405C321.417 199.186 323.928 200.73 325.806 201.658C327.725 202.605 328.378 203.223 328.378 204.068C328.358 205.365 326.827 205.963 325.398 205.963C323.417 205.963 322.356 205.655 320.743 204.933L320.09 204.624L319.395 208.97C320.559 209.505 322.703 209.979 324.929 210C330.135 210 333.524 207.405 333.565 203.388C333.584 201.184 332.258 199.495 329.4 198.116C327.664 197.23 326.602 196.632 326.602 195.726C326.622 194.902 327.501 194.058 329.459 194.058C331.072 194.017 332.258 194.408 333.155 194.799L333.604 195.005L334.279 190.824ZM316.293 209.711H311.331L314.434 190.351H319.396L316.293 209.711ZM346.997 190.352H343.159C341.976 190.352 341.077 190.701 340.566 191.958L333.196 209.712H338.402C338.402 209.712 339.259 207.322 339.444 206.808H345.814C345.956 207.487 346.406 209.712 346.406 209.712H351L346.997 190.352ZM340.873 202.853C341.281 201.741 342.854 197.437 342.854 197.437C342.845 197.453 342.91 197.273 343.006 197.004L343.007 197.002L343.007 197.002C343.149 196.603 343.361 196.013 343.507 195.583L343.853 197.251C343.853 197.251 344.793 201.885 344.997 202.853H340.873ZM307.186 190.351L302.327 203.553L301.796 200.875C301.796 200.876 301.796 200.876 301.796 200.876L300.061 191.978C299.775 190.741 298.897 190.391 297.815 190.351H289.832L289.751 190.742C291.698 191.244 293.439 191.968 294.965 192.868L299.387 209.691H304.634L312.433 190.351H307.186Z" fill="white"/>
<path d="M38.732 53.234C37.88 53.234 37.079 53.066 36.329 52.73C35.579 52.388 34.919 51.917 34.349 51.317C33.785 50.717 33.341 50.024 33.017 49.238C32.699 48.446 32.54 47.6 32.54 46.7C32.54 45.794 32.699 44.948 33.017 44.162C33.341 43.37 33.785 42.677 34.349 42.083C34.919 41.483 35.579 41.015 36.329 40.679C37.079 40.337 37.88 40.166 38.732 40.166C39.752 40.166 40.691 40.403 41.549 40.877C42.407 41.345 43.118 41.972 43.682 42.758L41.72 43.811C41.366 43.373 40.925 43.022 40.397 42.758C39.875 42.494 39.32 42.362 38.732 42.362C38.18 42.362 37.661 42.476 37.175 42.704C36.689 42.926 36.263 43.238 35.897 43.64C35.531 44.036 35.246 44.498 35.042 45.026C34.838 45.548 34.736 46.106 34.736 46.7C34.736 47.3 34.838 47.861 35.042 48.383C35.252 48.905 35.54 49.367 35.906 49.769C36.272 50.165 36.695 50.477 37.175 50.705C37.661 50.927 38.18 51.038 38.732 51.038C39.332 51.038 39.89 50.906 40.406 50.642C40.928 50.372 41.366 50.018 41.72 49.58L43.682 50.642C43.118 51.422 42.407 52.049 41.549 52.523C40.691 52.997 39.752 53.234 38.732 53.234ZM51.8041 44H54.0001V53H51.7951L51.7051 51.884C51.4531 52.286 51.1231 52.613 50.7151 52.865C50.3131 53.111 49.8391 53.234 49.2931 53.234C48.6271 53.234 48.0031 53.108 47.4211 52.856C46.8391 52.604 46.3261 52.256 45.8821 51.812C45.4381 51.368 45.0931 50.855 44.8471 50.273C44.6011 49.691 44.4781 49.067 44.4781 48.401C44.4781 47.759 44.5951 47.156 44.8291 46.592C45.0631 46.028 45.3931 45.533 45.8191 45.107C46.2451 44.681 46.7371 44.348 47.2951 44.108C47.8531 43.868 48.4531 43.748 49.0951 43.748C49.6951 43.748 50.2291 43.88 50.6971 44.144C51.1711 44.408 51.5731 44.744 51.9031 45.152L51.8041 44ZM49.3561 51.119C49.8361 51.119 50.2531 50.996 50.6071 50.75C50.9611 50.504 51.2281 50.177 51.4081 49.769C51.5941 49.355 51.6691 48.899 51.6331 48.401C51.5911 47.933 51.4531 47.51 51.2191 47.132C50.9851 46.748 50.6851 46.442 50.3191 46.214C49.9531 45.986 49.5421 45.872 49.0861 45.872C48.6121 45.872 48.1861 45.995 47.8081 46.241C47.4361 46.487 47.1481 46.817 46.9441 47.231C46.7401 47.639 46.6591 48.095 46.7011 48.599C46.7491 49.061 46.8991 49.484 47.1511 49.868C47.4031 50.246 47.7211 50.549 48.1051 50.777C48.4951 51.005 48.9121 51.119 49.3561 51.119ZM61.6321 46.232C61.4701 46.124 61.2931 46.037 61.1011 45.971C60.9151 45.905 60.7081 45.872 60.4801 45.872C60.0421 45.872 59.6641 45.986 59.3461 46.214C59.0341 46.442 58.7941 46.748 58.6261 47.132C58.4581 47.51 58.3741 47.93 58.3741 48.392V53H56.1601V44H58.3561V45.062C58.6561 44.666 59.0131 44.351 59.4271 44.117C59.8471 43.883 60.3211 43.766 60.8491 43.766C61.0531 43.766 61.2481 43.772 61.4341 43.784C61.6261 43.796 61.8091 43.829 61.9831 43.883L61.6321 46.232ZM69.5559 39.5H71.7519V53H69.5559V51.875C69.2679 52.277 68.9049 52.604 68.4669 52.856C68.0289 53.108 67.5219 53.234 66.9459 53.234C66.2919 53.234 65.6799 53.111 65.1099 52.865C64.5399 52.619 64.0359 52.28 63.5979 51.848C63.1659 51.41 62.8269 50.906 62.5809 50.336C62.3349 49.766 62.2119 49.154 62.2119 48.5C62.2119 47.846 62.3349 47.234 62.5809 46.664C62.8269 46.094 63.1659 45.593 63.5979 45.161C64.0359 44.723 64.5399 44.381 65.1099 44.135C65.6799 43.889 66.2919 43.766 66.9459 43.766C67.5219 43.766 68.0289 43.892 68.4669 44.144C68.9049 44.39 69.2679 44.717 69.5559 45.125V39.5ZM66.9729 51.119C67.4409 51.119 67.8549 51.002 68.2149 50.768C68.5749 50.534 68.8569 50.219 69.0609 49.823C69.2649 49.421 69.3669 48.98 69.3669 48.5C69.3669 48.014 69.2649 47.573 69.0609 47.177C68.8569 46.775 68.5719 46.457 68.2059 46.223C67.8459 45.989 67.4349 45.872 66.9729 45.872C66.5109 45.872 66.0909 45.992 65.7129 46.232C65.3349 46.466 65.0319 46.781 64.8039 47.177C64.5759 47.573 64.4619 48.014 64.4619 48.5C64.4619 48.986 64.5759 49.427 64.8039 49.823C65.0319 50.219 65.3349 50.534 65.7129 50.768C66.0969 51.002 66.5169 51.119 66.9729 51.119Z" fill="white"/>
<path d="M39.2422 108.07C40.0938 108.07 40.9414 108.301 41.7852 108.762C42.6367 109.215 43.2852 109.867 43.7305 110.719C44.1836 111.562 44.4102 112.398 44.4102 113.227C44.4102 114.656 43.9062 115.875 42.8984 116.883C41.8906 117.891 40.6719 118.395 39.2422 118.395C37.8203 118.395 36.6055 117.891 35.5977 116.883C34.5898 115.875 34.0859 114.656 34.0859 113.227C34.0859 112.383 34.3008 111.547 34.7305 110.719C35.168 109.883 35.8047 109.234 36.6406 108.773C37.4844 108.305 38.3516 108.07 39.2422 108.07ZM53.75 108.07C54.6016 108.07 55.4492 108.301 56.293 108.762C57.1445 109.215 57.793 109.867 58.2383 110.719C58.6914 111.562 58.918 112.398 58.918 113.227C58.918 114.656 58.4141 115.875 57.4062 116.883C56.3984 117.891 55.1797 118.395 53.75 118.395C52.3281 118.395 51.1133 117.891 50.1055 116.883C49.0977 115.875 48.5938 114.656 48.5938 113.227C48.5938 112.383 48.8086 111.547 49.2383 110.719C49.6758 109.883 50.3125 109.234 51.1484 108.773C51.9922 108.305 52.8594 108.07 53.75 108.07ZM68.2578 108.07C69.1094 108.07 69.957 108.301 70.8008 108.762C71.6523 109.215 72.3008 109.867 72.7461 110.719C73.1992 111.562 73.4258 112.398 73.4258 113.227C73.4258 114.656 72.9219 115.875 71.9141 116.883C70.9062 117.891 69.6875 118.395 68.2578 118.395C66.8359 118.395 65.6211 117.891 64.6133 116.883C63.6055 115.875 63.1016 114.656 63.1016 113.227C63.1016 112.383 63.3164 111.547 63.7461 110.719C64.1836 109.883 64.8203 109.234 65.6562 108.773C66.5 108.305 67.3672 108.07 68.2578 108.07ZM82.7656 108.07C83.6172 108.07 84.4648 108.301 85.3086 108.762C86.1602 109.215 86.8086 109.867 87.2539 110.719C87.707 111.562 87.9336 112.398 87.9336 113.227C87.9336 114.656 87.4297 115.875 86.4219 116.883C85.4141 117.891 84.1953 118.395 82.7656 118.395C81.3438 118.395 80.1289 117.891 79.1211 116.883C78.1133 115.875 77.6094 114.656 77.6094 113.227C77.6094 112.383 77.8242 111.547 78.2539 110.719C78.6914 109.883 79.3281 109.234 80.1641 108.773C81.0078 108.305 81.875 108.07 82.7656 108.07ZM103.039 108.07C103.891 108.07 104.738 108.301 105.582 108.762C106.434 109.215 107.082 109.867 107.527 110.719C107.98 111.562 108.207 112.398 108.207 113.227C108.207 114.656 107.703 115.875 106.695 116.883C105.688 117.891 104.469 118.395 103.039 118.395C101.617 118.395 100.402 117.891 99.3945 116.883C98.3867 115.875 97.8828 114.656 97.8828 113.227C97.8828 112.383 98.0977 111.547 98.5273 110.719C98.9648 109.883 99.6016 109.234 100.438 108.773C101.281 108.305 102.148 108.07 103.039 108.07ZM117.547 108.07C118.398 108.07 119.246 108.301 120.09 108.762C120.941 109.215 121.59 109.867 122.035 110.719C122.488 111.562 122.715 112.398 122.715 113.227C122.715 114.656 122.211 115.875 121.203 116.883C120.195 117.891 118.977 118.395 117.547 118.395C116.125 118.395 114.91 117.891 113.902 116.883C112.895 115.875 112.391 114.656 112.391 113.227C112.391 112.383 112.605 111.547 113.035 110.719C113.473 109.883 114.109 109.234 114.945 108.773C115.789 108.305 116.656 108.07 117.547 108.07ZM132.055 108.07C132.906 108.07 133.754 108.301 134.598 108.762C135.449 109.215 136.098 109.867 136.543 110.719C136.996 111.562 137.223 112.398 137.223 113.227C137.223 114.656 136.719 115.875 135.711 116.883C134.703 117.891 133.484 118.395 132.055 118.395C130.633 118.395 129.418 117.891 128.41 116.883C127.402 115.875 126.898 114.656 126.898 113.227C126.898 112.383 127.113 111.547 127.543 110.719C127.98 109.883 128.617 109.234 129.453 108.773C130.297 108.305 131.164 108.07 132.055 108.07ZM146.562 108.07C147.414 108.07 148.262 108.301 149.105 108.762C149.957 109.215 150.605 109.867 151.051 110.719C151.504 111.562 151.73 112.398 151.73 113.227C151.73 114.656 151.227 115.875 150.219 116.883C149.211 117.891 147.992 118.395 146.562 118.395C145.141 118.395 143.926 117.891 142.918 116.883C141.91 115.875 141.406 114.656 141.406 113.227C141.406 112.383 141.621 111.547 142.051 110.719C142.488 109.883 143.125 109.234 143.961 108.773C144.805 108.305 145.672 108.07 146.562 108.07ZM166.836 108.07C167.688 108.07 168.535 108.301 169.379 108.762C170.23 109.215 170.879 109.867 171.324 110.719C171.777 111.562 172.004 112.398 172.004 113.227C172.004 114.656 171.5 115.875 170.492 116.883C169.484 117.891 168.266 118.395 166.836 118.395C165.414 118.395 164.199 117.891 163.191 116.883C162.184 115.875 161.68 114.656 161.68 113.227C161.68 112.383 161.895 111.547 162.324 110.719C162.762 109.883 163.398 109.234 164.234 108.773C165.078 108.305 165.945 108.07 166.836 108.07ZM181.344 108.07C182.195 108.07 183.043 108.301 183.887 108.762C184.738 109.215 185.387 109.867 185.832 110.719C186.285 111.562 186.512 112.398 186.512 113.227C186.512 114.656 186.008 115.875 185 116.883C183.992 117.891 182.773 118.395 181.344 118.395C179.922 118.395 178.707 117.891 177.699 116.883C176.691 115.875 176.188 114.656 176.188 113.227C176.188 112.383 176.402 111.547 176.832 110.719C177.27 109.883 177.906 109.234 178.742 108.773C179.586 108.305 180.453 108.07 181.344 108.07ZM195.852 108.07C196.703 108.07 197.551 108.301 198.395 108.762C199.246 109.215 199.895 109.867 200.34 110.719C200.793 111.562 201.02 112.398 201.02 113.227C201.02 114.656 200.516 115.875 199.508 116.883C198.5 117.891 197.281 118.395 195.852 118.395C194.43 118.395 193.215 117.891 192.207 116.883C191.199 115.875 190.695 114.656 190.695 113.227C190.695 112.383 190.91 111.547 191.34 110.719C191.777 109.883 192.414 109.234 193.25 108.773C194.094 108.305 194.961 108.07 195.852 108.07ZM210.359 108.07C211.211 108.07 212.059 108.301 212.902 108.762C213.754 109.215 214.402 109.867 214.848 110.719C215.301 111.562 215.527 112.398 215.527 113.227C215.527 114.656 215.023 115.875 214.016 116.883C213.008 117.891 211.789 118.395 210.359 118.395C208.938 118.395 207.723 117.891 206.715 116.883C205.707 115.875 205.203 114.656 205.203 113.227C205.203 112.383 205.418 111.547 205.848 110.719C206.285 109.883 206.922 109.234 207.758 108.773C208.602 108.305 209.469 108.07 210.359 108.07ZM230.633 108.07C231.484 108.07 232.332 108.301 233.176 108.762C234.027 109.215 234.676 109.867 235.121 110.719C235.574 111.562 235.801 112.398 235.801 113.227C235.801 114.656 235.297 115.875 234.289 116.883C233.281 117.891 232.062 118.395 230.633 118.395C229.211 118.395 227.996 117.891 226.988 116.883C225.98 115.875 225.477 114.656 225.477 113.227C225.477 112.383 225.691 111.547 226.121 110.719C226.559 109.883 227.195 109.234 228.031 108.773C228.875 108.305 229.742 108.07 230.633 108.07ZM245.141 108.07C245.992 108.07 246.84 108.301 247.684 108.762C248.535 109.215 249.184 109.867 249.629 110.719C250.082 111.562 250.309 112.398 250.309 113.227C250.309 114.656 249.805 115.875 248.797 116.883C247.789 117.891 246.57 118.395 245.141 118.395C243.719 118.395 242.504 117.891 241.496 116.883C240.488 115.875 239.984 114.656 239.984 113.227C239.984 112.383 240.199 111.547 240.629 110.719C241.066 109.883 241.703 109.234 242.539 108.773C243.383 108.305 244.25 108.07 245.141 108.07ZM259.648 108.07C260.5 108.07 261.348 108.301 262.191 108.762C263.043 109.215 263.691 109.867 264.137 110.719C264.59 111.562 264.816 112.398 264.816 113.227C264.816 114.656 264.312 115.875 263.305 116.883C262.297 117.891 261.078 118.395 259.648 118.395C258.227 118.395 257.012 117.891 256.004 116.883C254.996 115.875 254.492 114.656 254.492 113.227C254.492 112.383 254.707 111.547 255.137 110.719C255.574 109.883 256.211 109.234 257.047 108.773C257.891 108.305 258.758 108.07 259.648 108.07ZM274.156 108.07C275.008 108.07 275.855 108.301 276.699 108.762C277.551 109.215 278.199 109.867 278.645 110.719C279.098 111.562 279.324 112.398 279.324 113.227C279.324 114.656 278.82 115.875 277.812 116.883C276.805 117.891 275.586 118.395 274.156 118.395C272.734 118.395 271.52 117.891 270.512 116.883C269.504 115.875 269 114.656 269 113.227C269 112.383 269.215 111.547 269.645 110.719C270.082 109.883 270.719 109.234 271.555 108.773C272.398 108.305 273.266 108.07 274.156 108.07Z" fill="white"/>
<path d="M35.74 175.13C35.2667 175.13 34.8217 175.037 34.405 174.85C33.9883 174.66 33.6217 174.4 33.305 174.07C32.9917 173.737 32.745 173.35 32.565 172.91C32.3883 172.47 32.3 172 32.3 171.5C32.3 171 32.3883 170.53 32.565 170.09C32.745 169.65 32.9917 169.265 33.305 168.935C33.6217 168.602 33.9883 168.342 34.405 168.155C34.8217 167.965 35.2667 167.87 35.74 167.87C36.3067 167.87 36.8283 168.002 37.305 168.265C37.7817 168.528 38.1767 168.878 38.49 169.315L37.745 169.715C37.5117 169.408 37.2167 169.165 36.86 168.985C36.5067 168.802 36.1333 168.71 35.74 168.71C35.3767 168.71 35.0367 168.783 34.72 168.93C34.4067 169.077 34.1317 169.278 33.895 169.535C33.6583 169.792 33.4733 170.088 33.34 170.425C33.2067 170.762 33.14 171.12 33.14 171.5C33.14 171.883 33.2067 172.243 33.34 172.58C33.4767 172.917 33.6633 173.213 33.9 173.47C34.14 173.727 34.4167 173.928 34.73 174.075C35.0467 174.218 35.3833 174.29 35.74 174.29C36.1467 174.29 36.5233 174.198 36.87 174.015C37.22 173.828 37.5117 173.585 37.745 173.285L38.49 173.69C38.1767 174.127 37.7817 174.477 37.305 174.74C36.8283 175 36.3067 175.13 35.74 175.13ZM43.4961 170H44.3361V175H43.4911L43.4611 174.155C43.3044 174.445 43.0878 174.68 42.8111 174.86C42.5378 175.04 42.2128 175.13 41.8361 175.13C41.4661 175.13 41.1211 175.062 40.8011 174.925C40.4811 174.785 40.1978 174.593 39.9511 174.35C39.7078 174.103 39.5178 173.82 39.3811 173.5C39.2444 173.18 39.1761 172.835 39.1761 172.465C39.1761 172.108 39.2428 171.772 39.3761 171.455C39.5094 171.138 39.6944 170.862 39.9311 170.625C40.1711 170.385 40.4478 170.198 40.7611 170.065C41.0744 169.928 41.4094 169.86 41.7661 169.86C42.1628 169.86 42.5094 169.953 42.8061 170.14C43.1061 170.323 43.3461 170.562 43.5261 170.855L43.4961 170ZM41.8561 174.315C42.1894 174.315 42.4761 174.232 42.7161 174.065C42.9561 173.898 43.1378 173.675 43.2611 173.395C43.3878 173.115 43.4444 172.805 43.4311 172.465C43.4178 172.132 43.3394 171.83 43.1961 171.56C43.0528 171.29 42.8594 171.077 42.6161 170.92C42.3728 170.76 42.0894 170.68 41.7661 170.68C41.4361 170.68 41.1361 170.763 40.8661 170.93C40.5961 171.097 40.3844 171.32 40.2311 171.6C40.0811 171.88 40.0128 172.192 40.0261 172.535C40.0428 172.865 40.1361 173.165 40.3061 173.435C40.4761 173.705 40.6961 173.92 40.9661 174.08C41.2394 174.237 41.5361 174.315 41.8561 174.315ZM48.5944 170.83C48.511 170.783 48.421 170.747 48.3244 170.72C48.2277 170.693 48.1227 170.68 48.0094 170.68C47.7327 170.68 47.486 170.755 47.2694 170.905C47.056 171.055 46.8877 171.258 46.7644 171.515C46.641 171.772 46.5794 172.055 46.5794 172.365V175H45.7344V170H46.5744V170.77C46.7544 170.49 46.9777 170.27 47.2444 170.11C47.511 169.947 47.806 169.865 48.1294 169.865C48.2394 169.865 48.3444 169.87 48.4444 169.88C48.5444 169.89 48.6394 169.91 48.7294 169.94L48.5944 170.83ZM53.348 167.5H54.188V175H53.348V174.15C53.178 174.443 52.9497 174.68 52.663 174.86C52.3764 175.04 52.0397 175.13 51.653 175.13C51.2897 175.13 50.9497 175.062 50.633 174.925C50.3164 174.788 50.0364 174.6 49.793 174.36C49.553 174.117 49.3647 173.837 49.228 173.52C49.0914 173.203 49.023 172.863 49.023 172.5C49.023 172.137 49.0914 171.797 49.228 171.48C49.3647 171.16 49.553 170.88 49.793 170.64C50.0364 170.397 50.3164 170.207 50.633 170.07C50.9497 169.933 51.2897 169.865 51.653 169.865C52.0397 169.865 52.3764 169.955 52.663 170.135C52.9497 170.315 53.178 170.552 53.348 170.845V167.5ZM51.663 174.315C51.993 174.315 52.278 174.235 52.518 174.075C52.7614 173.912 52.948 173.692 53.078 173.415C53.2114 173.138 53.278 172.833 53.278 172.5C53.278 172.16 53.2114 171.853 53.078 171.58C52.9447 171.303 52.7564 171.085 52.513 170.925C52.273 170.762 51.9897 170.68 51.663 170.68C51.333 170.68 51.033 170.762 50.763 170.925C50.4964 171.088 50.283 171.308 50.123 171.585C49.963 171.858 49.883 172.163 49.883 172.5C49.883 172.837 49.9647 173.143 50.128 173.42C50.2914 173.693 50.508 173.912 50.778 174.075C51.048 174.235 51.343 174.315 51.663 174.315ZM62.5339 168H63.3739V175H62.5339V171.67H59.0689V175H58.2289V168H59.0689V170.83H62.5339V168ZM66.8594 175.13C66.3994 175.13 65.9794 175.012 65.5994 174.775C65.2227 174.538 64.921 174.222 64.6944 173.825C64.471 173.425 64.3594 172.983 64.3594 172.5C64.3594 172.133 64.4244 171.792 64.5544 171.475C64.6844 171.155 64.8627 170.875 65.0894 170.635C65.3194 170.392 65.586 170.202 65.8894 170.065C66.1927 169.928 66.516 169.86 66.8594 169.86C67.3194 169.86 67.7377 169.978 68.1144 170.215C68.4944 170.452 68.796 170.77 69.0194 171.17C69.246 171.57 69.3594 172.013 69.3594 172.5C69.3594 172.863 69.2944 173.203 69.1644 173.52C69.0344 173.837 68.8544 174.117 68.6244 174.36C68.3977 174.6 68.1327 174.788 67.8294 174.925C67.5294 175.062 67.206 175.13 66.8594 175.13ZM66.8594 174.29C67.1727 174.29 67.4544 174.208 67.7044 174.045C67.9577 173.878 68.156 173.66 68.2994 173.39C68.446 173.117 68.5194 172.82 68.5194 172.5C68.5194 172.173 68.4444 171.873 68.2944 171.6C68.1477 171.327 67.9494 171.108 67.6994 170.945C67.4494 170.782 67.1694 170.7 66.8594 170.7C66.546 170.7 66.2644 170.783 66.0144 170.95C65.7644 171.113 65.566 171.332 65.4194 171.605C65.2727 171.878 65.1994 172.177 65.1994 172.5C65.1994 172.833 65.2744 173.137 65.4244 173.41C65.5744 173.68 65.776 173.895 66.0294 174.055C66.2827 174.212 66.5594 174.29 66.8594 174.29ZM70.4522 175V167.5H71.2872V175H70.4522ZM76.7992 167.5H77.6392V175H76.7992V174.15C76.6292 174.443 76.4009 174.68 76.1142 174.86C75.8276 175.04 75.4909 175.13 75.1042 175.13C74.7409 175.13 74.4009 175.062 74.0842 174.925C73.7676 174.788 73.4876 174.6 73.2442 174.36C73.0042 174.117 72.8159 173.837 72.6792 173.52C72.5426 173.203 72.4742 172.863 72.4742 172.5C72.4742 172.137 72.5426 171.797 72.6792 171.48C72.8159 171.16 73.0042 170.88 73.2442 170.64C73.4876 170.397 73.7676 170.207 74.0842 170.07C74.4009 169.933 74.7409 169.865 75.1042 169.865C75.4909 169.865 75.8276 169.955 76.1142 170.135C76.4009 170.315 76.6292 170.552 76.7992 170.845V167.5ZM75.1142 174.315C75.4442 174.315 75.7292 174.235 75.9692 174.075C76.2126 173.912 76.3992 173.692 76.5292 173.415C76.6626 173.138 76.7292 172.833 76.7292 172.5C76.7292 172.16 76.6626 171.853 76.5292 171.58C76.3959 171.303 76.2076 171.085 75.9642 170.925C75.7242 170.762 75.4409 170.68 75.1142 170.68C74.7842 170.68 74.4842 170.762 74.2142 170.925C73.9476 171.088 73.7342 171.308 73.5742 171.585C73.4142 171.858 73.3342 172.163 73.3342 172.5C73.3342 172.837 73.4159 173.143 73.5792 173.42C73.7426 173.693 73.9592 173.912 74.2292 174.075C74.4992 174.235 74.7942 174.315 75.1142 174.315ZM81.2777 175.13C80.8177 175.13 80.3977 175.012 80.0177 174.775C79.6411 174.538 79.3394 174.222 79.1127 173.825C78.8894 173.425 78.7777 172.983 78.7777 172.5C78.7777 172.133 78.8427 171.792 78.9727 171.475C79.1027 171.155 79.2811 170.875 79.5077 170.635C79.7377 170.392 80.0044 170.202 80.3077 170.065C80.6111 169.928 80.9344 169.86 81.2777 169.86C81.6544 169.86 81.9994 169.937 82.3127 170.09C82.6294 170.24 82.8994 170.45 83.1227 170.72C83.3494 170.99 83.5177 171.303 83.6277 171.66C83.7411 172.017 83.7827 172.398 83.7527 172.805H79.6727C79.7127 173.088 79.8061 173.342 79.9527 173.565C80.0994 173.785 80.2861 173.96 80.5127 174.09C80.7427 174.22 80.9977 174.287 81.2777 174.29C81.5777 174.29 81.8494 174.213 82.0927 174.06C82.3361 173.903 82.5327 173.69 82.6827 173.42L83.5377 173.62C83.3377 174.063 83.0361 174.427 82.6327 174.71C82.2294 174.99 81.7777 175.13 81.2777 175.13ZM79.6477 172.145H82.9077C82.8811 171.865 82.7911 171.61 82.6377 171.38C82.4844 171.147 82.2894 170.96 82.0527 170.82C81.8161 170.68 81.5577 170.61 81.2777 170.61C80.9977 170.61 80.7411 170.678 80.5077 170.815C80.2744 170.952 80.0811 171.137 79.9277 171.37C79.7777 171.6 79.6844 171.858 79.6477 172.145ZM87.6651 170.83C87.5817 170.783 87.4917 170.747 87.3951 170.72C87.2984 170.693 87.1934 170.68 87.0801 170.68C86.8034 170.68 86.5567 170.755 86.3401 170.905C86.1267 171.055 85.9584 171.258 85.8351 171.515C85.7117 171.772 85.6501 172.055 85.6501 172.365V175H84.8051V170H85.6451V170.77C85.8251 170.49 86.0484 170.27 86.3151 170.11C86.5817 169.947 86.8767 169.865 87.2001 169.865C87.3101 169.865 87.4151 169.87 87.5151 169.88C87.6151 169.89 87.7101 169.91 87.8001 169.94L87.6651 170.83ZM91.4327 175V168H92.3427L95.8377 173.48V168H96.6777V175H95.7727L92.2677 169.52V175H91.4327ZM102.117 170H102.957V175H102.112L102.082 174.155C101.925 174.445 101.708 174.68 101.432 174.86C101.158 175.04 100.833 175.13 100.457 175.13C100.087 175.13 99.7418 175.062 99.4218 174.925C99.1018 174.785 98.8185 174.593 98.5718 174.35C98.3285 174.103 98.1385 173.82 98.0018 173.5C97.8651 173.18 97.7968 172.835 97.7968 172.465C97.7968 172.108 97.8635 171.772 97.9968 171.455C98.1301 171.138 98.3151 170.862 98.5518 170.625C98.7918 170.385 99.0685 170.198 99.3818 170.065C99.6951 169.928 100.03 169.86 100.387 169.86C100.783 169.86 101.13 169.953 101.427 170.14C101.727 170.323 101.967 170.562 102.147 170.855L102.117 170ZM100.477 174.315C100.81 174.315 101.097 174.232 101.337 174.065C101.577 173.898 101.758 173.675 101.882 173.395C102.008 173.115 102.065 172.805 102.052 172.465C102.038 172.132 101.96 171.83 101.817 171.56C101.673 171.29 101.48 171.077 101.237 170.92C100.993 170.76 100.71 170.68 100.387 170.68C100.057 170.68 99.7568 170.763 99.4868 170.93C99.2168 171.097 99.0051 171.32 98.8518 171.6C98.7018 171.88 98.6335 172.192 98.6468 172.535C98.6635 172.865 98.7568 173.165 98.9268 173.435C99.0968 173.705 99.3168 173.92 99.5868 174.08C99.8601 174.237 100.157 174.315 100.477 174.315ZM104.21 175V170H105.05V170.725C105.217 170.482 105.397 170.287 105.59 170.14C105.783 169.99 106.025 169.915 106.315 169.915C106.708 169.915 107.05 170.01 107.34 170.2C107.63 170.39 107.865 170.65 108.045 170.98C108.228 170.647 108.467 170.387 108.76 170.2C109.053 170.01 109.393 169.915 109.78 169.915C110.203 169.915 110.572 170.023 110.885 170.24C111.202 170.457 111.447 170.745 111.62 171.105C111.797 171.465 111.885 171.86 111.885 172.29V175H111.045V172.29C111.045 172.007 110.993 171.75 110.89 171.52C110.79 171.287 110.645 171.102 110.455 170.965C110.268 170.825 110.043 170.755 109.78 170.755C109.517 170.755 109.287 170.825 109.09 170.965C108.893 171.102 108.74 171.287 108.63 171.52C108.52 171.75 108.465 172.007 108.465 172.29V175H107.625V172.29C107.625 172.007 107.57 171.75 107.46 171.52C107.35 171.287 107.197 171.102 107 170.965C106.803 170.825 106.575 170.755 106.315 170.755C106.068 170.755 105.85 170.828 105.66 170.975C105.47 171.122 105.32 171.317 105.21 171.56C105.103 171.8 105.05 172.062 105.05 172.345V175H104.21ZM115.193 175.13C114.733 175.13 114.313 175.012 113.933 174.775C113.556 174.538 113.254 174.222 113.028 173.825C112.804 173.425 112.693 172.983 112.693 172.5C112.693 172.133 112.758 171.792 112.888 171.475C113.018 171.155 113.196 170.875 113.423 170.635C113.653 170.392 113.919 170.202 114.223 170.065C114.526 169.928 114.849 169.86 115.193 169.86C115.569 169.86 115.914 169.937 116.228 170.09C116.544 170.24 116.814 170.45 117.038 170.72C117.264 170.99 117.433 171.303 117.543 171.66C117.656 172.017 117.698 172.398 117.668 172.805H113.588C113.628 173.088 113.721 173.342 113.868 173.565C114.014 173.785 114.201 173.96 114.428 174.09C114.658 174.22 114.913 174.287 115.193 174.29C115.493 174.29 115.764 174.213 116.008 174.06C116.251 173.903 116.448 173.69 116.598 173.42L117.453 173.62C117.253 174.063 116.951 174.427 116.548 174.71C116.144 174.99 115.693 175.13 115.193 175.13ZM113.563 172.145H116.823C116.796 171.865 116.706 171.61 116.553 171.38C116.399 171.147 116.204 170.96 115.968 170.82C115.731 170.68 115.473 170.61 115.193 170.61C114.913 170.61 114.656 170.678 114.423 170.815C114.189 170.952 113.996 171.137 113.843 171.37C113.693 171.6 113.599 171.858 113.563 172.145Z" fill="white"/>
<path d="M36.8281 194.047C37.3958 194.047 37.9609 194.201 38.5234 194.508C39.0911 194.81 39.5234 195.245 39.8203 195.812C40.1224 196.375 40.2734 196.932 40.2734 197.484C40.2734 198.438 39.9375 199.25 39.2656 199.922C38.5938 200.594 37.7812 200.93 36.8281 200.93C35.8802 200.93 35.0703 200.594 34.3984 199.922C33.7266 199.25 33.3906 198.438 33.3906 197.484C33.3906 196.922 33.5339 196.365 33.8203 195.812C34.112 195.255 34.5365 194.823 35.0938 194.516C35.6562 194.203 36.2344 194.047 36.8281 194.047ZM46.7 194.047C47.2677 194.047 47.8328 194.201 48.3953 194.508C48.963 194.81 49.3953 195.245 49.6922 195.812C49.9943 196.375 50.1453 196.932 50.1453 197.484C50.1453 198.438 49.8094 199.25 49.1375 199.922C48.4656 200.594 47.6531 200.93 46.7 200.93C45.7521 200.93 44.9422 200.594 44.2703 199.922C43.5984 199.25 43.2625 198.438 43.2625 197.484C43.2625 196.922 43.4057 196.365 43.6922 195.812C43.9839 195.255 44.4083 194.823 44.9656 194.516C45.5281 194.203 46.1062 194.047 46.7 194.047ZM56.5719 194.047C57.1396 194.047 57.7047 194.201 58.2672 194.508C58.8349 194.81 59.2672 195.245 59.5641 195.812C59.8661 196.375 60.0172 196.932 60.0172 197.484C60.0172 198.438 59.6812 199.25 59.0094 199.922C58.3375 200.594 57.525 200.93 56.5719 200.93C55.624 200.93 54.8141 200.594 54.1422 199.922C53.4703 199.25 53.1344 198.438 53.1344 197.484C53.1344 196.922 53.2776 196.365 53.5641 195.812C53.8557 195.255 54.2802 194.823 54.8375 194.516C55.4 194.203 55.9781 194.047 56.5719 194.047ZM66.4438 194.047C67.0115 194.047 67.5766 194.201 68.1391 194.508C68.7068 194.81 69.1391 195.245 69.4359 195.812C69.738 196.375 69.8891 196.932 69.8891 197.484C69.8891 198.438 69.5531 199.25 68.8813 199.922C68.2094 200.594 67.3969 200.93 66.4438 200.93C65.4958 200.93 64.6859 200.594 64.0141 199.922C63.3422 199.25 63.0063 198.438 63.0063 197.484C63.0063 196.922 63.1495 196.365 63.4359 195.812C63.7276 195.255 64.1521 194.823 64.7094 194.516C65.2719 194.203 65.85 194.047 66.4438 194.047ZM76.3156 194.047C76.8833 194.047 77.4484 194.201 78.0109 194.508C78.5786 194.81 79.0109 195.245 79.3078 195.812C79.6099 196.375 79.7609 196.932 79.7609 197.484C79.7609 198.438 79.425 199.25 78.7531 199.922C78.0812 200.594 77.2687 200.93 76.3156 200.93C75.3677 200.93 74.5578 200.594 73.8859 199.922C73.2141 199.25 72.8781 198.438 72.8781 197.484C72.8781 196.922 73.0214 196.365 73.3078 195.812C73.5995 195.255 74.024 194.823 74.5812 194.516C75.1437 194.203 75.7219 194.047 76.3156 194.047ZM86.1875 194.047C86.7552 194.047 87.3203 194.201 87.8828 194.508C88.4505 194.81 88.8828 195.245 89.1797 195.812C89.4818 196.375 89.6328 196.932 89.6328 197.484C89.6328 198.438 89.2969 199.25 88.625 199.922C87.9531 200.594 87.1406 200.93 86.1875 200.93C85.2396 200.93 84.4297 200.594 83.7578 199.922C83.0859 199.25 82.75 198.438 82.75 197.484C82.75 196.922 82.8932 196.365 83.1797 195.812C83.4714 195.255 83.8958 194.823 84.4531 194.516C85.0156 194.203 85.5938 194.047 86.1875 194.047ZM96.0594 194.047C96.6271 194.047 97.1922 194.201 97.7547 194.508C98.3224 194.81 98.7547 195.245 99.0516 195.812C99.3536 196.375 99.5047 196.932 99.5047 197.484C99.5047 198.438 99.1688 199.25 98.4969 199.922C97.825 200.594 97.0125 200.93 96.0594 200.93C95.1115 200.93 94.3016 200.594 93.6297 199.922C92.9578 199.25 92.6219 198.438 92.6219 197.484C92.6219 196.922 92.7651 196.365 93.0516 195.812C93.3432 195.255 93.7677 194.823 94.325 194.516C94.8875 194.203 95.4656 194.047 96.0594 194.047ZM105.931 194.047C106.499 194.047 107.064 194.201 107.627 194.508C108.194 194.81 108.627 195.245 108.923 195.812C109.226 196.375 109.377 196.932 109.377 197.484C109.377 198.438 109.041 199.25 108.369 199.922C107.697 200.594 106.884 200.93 105.931 200.93C104.983 200.93 104.173 200.594 103.502 199.922C102.83 199.25 102.494 198.438 102.494 197.484C102.494 196.922 102.637 196.365 102.923 195.812C103.215 195.255 103.64 194.823 104.197 194.516C104.759 194.203 105.338 194.047 105.931 194.047ZM115.803 194.047C116.371 194.047 116.936 194.201 117.498 194.508C118.066 194.81 118.498 195.245 118.795 195.812C119.097 196.375 119.248 196.932 119.248 197.484C119.248 198.438 118.912 199.25 118.241 199.922C117.569 200.594 116.756 200.93 115.803 200.93C114.855 200.93 114.045 200.594 113.373 199.922C112.702 199.25 112.366 198.438 112.366 197.484C112.366 196.922 112.509 196.365 112.795 195.812C113.087 195.255 113.511 194.823 114.069 194.516C114.631 194.203 115.209 194.047 115.803 194.047Z" fill="white"/>
<path d="M153.6 175V168H157.895V168.84H154.44V170.83H157.27V171.67H154.44V174.16H157.895V175H153.6ZM158.717 175L160.547 172.49L158.727 169.99H159.762L161.067 171.77L162.367 169.99H163.402L161.582 172.49L163.412 175H162.377L161.067 173.2L159.752 175H158.717ZM165.319 177.5H164.479V170H165.319V170.855C165.489 170.562 165.715 170.325 165.999 170.145C166.282 169.962 166.619 169.87 167.009 169.87C167.372 169.87 167.712 169.938 168.029 170.075C168.349 170.212 168.629 170.402 168.869 170.645C169.109 170.885 169.297 171.163 169.434 171.48C169.57 171.797 169.639 172.137 169.639 172.5C169.639 172.863 169.57 173.205 169.434 173.525C169.297 173.845 169.109 174.127 168.869 174.37C168.629 174.61 168.349 174.798 168.029 174.935C167.712 175.072 167.372 175.14 167.009 175.14C166.619 175.14 166.282 175.05 165.999 174.87C165.715 174.687 165.489 174.448 165.319 174.155V177.5ZM166.999 170.685C166.675 170.685 166.392 170.767 166.149 170.93C165.905 171.093 165.717 171.312 165.584 171.585C165.454 171.858 165.389 172.163 165.389 172.5C165.389 172.833 165.454 173.138 165.584 173.415C165.717 173.692 165.904 173.912 166.144 174.075C166.387 174.238 166.672 174.32 166.999 174.32C167.322 174.32 167.619 174.24 167.889 174.08C168.159 173.917 168.375 173.698 168.539 173.425C168.702 173.148 168.784 172.84 168.784 172.5C168.784 172.167 168.704 171.863 168.544 171.59C168.384 171.313 168.169 171.093 167.899 170.93C167.629 170.767 167.329 170.685 166.999 170.685ZM170.704 170H171.544V175H170.704V170ZM171.129 169.085C170.999 169.085 170.889 169.042 170.799 168.955C170.709 168.868 170.664 168.76 170.664 168.63C170.664 168.5 170.709 168.392 170.799 168.305C170.889 168.218 170.999 168.175 171.129 168.175C171.259 168.175 171.369 168.218 171.459 168.305C171.549 168.392 171.594 168.5 171.594 168.63C171.594 168.76 171.549 168.868 171.459 168.955C171.369 169.042 171.259 169.085 171.129 169.085ZM176.049 170.83C175.966 170.783 175.876 170.747 175.779 170.72C175.682 170.693 175.577 170.68 175.464 170.68C175.187 170.68 174.941 170.755 174.724 170.905C174.511 171.055 174.342 171.258 174.219 171.515C174.096 171.772 174.034 172.055 174.034 172.365V175H173.189V170H174.029V170.77C174.209 170.49 174.432 170.27 174.699 170.11C174.966 169.947 175.261 169.865 175.584 169.865C175.694 169.865 175.799 169.87 175.899 169.88C175.999 169.89 176.094 169.91 176.184 169.94L176.049 170.83ZM180.486 170H181.376L178.641 177.5H177.751L178.656 175L176.861 170H177.781L179.076 173.845L180.486 170ZM185.176 175V168H187.491C187.974 168 188.427 168.092 188.851 168.275C189.274 168.455 189.646 168.707 189.966 169.03C190.286 169.35 190.536 169.722 190.716 170.145C190.899 170.565 190.991 171.017 190.991 171.5C190.991 171.983 190.899 172.437 190.716 172.86C190.536 173.28 190.286 173.652 189.966 173.975C189.646 174.295 189.274 174.547 188.851 174.73C188.427 174.91 187.974 175 187.491 175H185.176ZM186.016 174.16H187.491C187.857 174.16 188.201 174.092 188.521 173.955C188.844 173.815 189.127 173.623 189.371 173.38C189.614 173.137 189.804 172.855 189.941 172.535C190.081 172.212 190.151 171.867 190.151 171.5C190.151 171.133 190.081 170.79 189.941 170.47C189.804 170.147 189.612 169.863 189.366 169.62C189.122 169.377 188.841 169.187 188.521 169.05C188.201 168.91 187.857 168.84 187.491 168.84H186.016V174.16ZM196.082 170H196.922V175H196.077L196.047 174.155C195.89 174.445 195.673 174.68 195.397 174.86C195.123 175.04 194.798 175.13 194.422 175.13C194.052 175.13 193.707 175.062 193.387 174.925C193.067 174.785 192.783 174.593 192.537 174.35C192.293 174.103 192.103 173.82 191.967 173.5C191.83 173.18 191.762 172.835 191.762 172.465C191.762 172.108 191.828 171.772 191.962 171.455C192.095 171.138 192.28 170.862 192.517 170.625C192.757 170.385 193.033 170.198 193.347 170.065C193.66 169.928 193.995 169.86 194.352 169.86C194.748 169.86 195.095 169.953 195.392 170.14C195.692 170.323 195.932 170.562 196.112 170.855L196.082 170ZM194.442 174.315C194.775 174.315 195.062 174.232 195.302 174.065C195.542 173.898 195.723 173.675 195.847 173.395C195.973 173.115 196.03 172.805 196.017 172.465C196.003 172.132 195.925 171.83 195.782 171.56C195.638 171.29 195.445 171.077 195.202 170.92C194.958 170.76 194.675 170.68 194.352 170.68C194.022 170.68 193.722 170.763 193.452 170.93C193.182 171.097 192.97 171.32 192.817 171.6C192.667 171.88 192.598 172.192 192.612 172.535C192.628 172.865 192.722 173.165 192.892 173.435C193.062 173.705 193.282 173.92 193.552 174.08C193.825 174.237 194.122 174.315 194.442 174.315ZM200.91 170.84H199.775L199.77 175H198.93L198.935 170.84H198.075V170H198.935L198.93 168.43H199.77L199.775 170H200.91V170.84ZM204.06 175.13C203.6 175.13 203.18 175.012 202.8 174.775C202.423 174.538 202.121 174.222 201.895 173.825C201.671 173.425 201.56 172.983 201.56 172.5C201.56 172.133 201.625 171.792 201.755 171.475C201.885 171.155 202.063 170.875 202.29 170.635C202.52 170.392 202.786 170.202 203.09 170.065C203.393 169.928 203.716 169.86 204.06 169.86C204.436 169.86 204.781 169.937 205.095 170.09C205.411 170.24 205.681 170.45 205.905 170.72C206.131 170.99 206.3 171.303 206.41 171.66C206.523 172.017 206.565 172.398 206.535 172.805H202.455C202.495 173.088 202.588 173.342 202.735 173.565C202.881 173.785 203.068 173.96 203.295 174.09C203.525 174.22 203.78 174.287 204.06 174.29C204.36 174.29 204.631 174.213 204.875 174.06C205.118 173.903 205.315 173.69 205.465 173.42L206.32 173.62C206.12 174.063 205.818 174.427 205.415 174.71C205.011 174.99 204.56 175.13 204.06 175.13ZM202.43 172.145H205.69C205.663 171.865 205.573 171.61 205.42 171.38C205.266 171.147 205.071 170.96 204.835 170.82C204.598 170.68 204.34 170.61 204.06 170.61C203.78 170.61 203.523 170.678 203.29 170.815C203.056 170.952 202.863 171.137 202.71 171.37C202.56 171.6 202.466 171.858 202.43 172.145Z" fill="white"/>
<path d="M157.824 202.208C157.163 202.208 156.565 202.059 156.032 201.76C155.504 201.456 155.048 201.037 154.664 200.504C154.28 199.971 153.987 199.355 153.784 198.656C153.581 197.952 153.48 197.2 153.48 196.4C153.48 195.6 153.581 194.848 153.784 194.144C153.987 193.44 154.28 192.824 154.664 192.296C155.048 191.763 155.504 191.347 156.032 191.048C156.565 190.744 157.163 190.592 157.824 190.592C158.475 190.592 159.067 190.744 159.6 191.048C160.133 191.347 160.587 191.763 160.96 192.296C161.339 192.824 161.629 193.44 161.832 194.144C162.035 194.848 162.136 195.6 162.136 196.4C162.136 197.2 162.035 197.952 161.832 198.656C161.629 199.355 161.339 199.971 160.96 200.504C160.587 201.037 160.133 201.456 159.6 201.76C159.067 202.059 158.475 202.208 157.824 202.208ZM157.824 200.544C158.437 200.544 158.947 200.352 159.352 199.968C159.763 199.579 160.069 199.069 160.272 198.44C160.475 197.811 160.576 197.131 160.576 196.4C160.576 195.632 160.469 194.936 160.256 194.312C160.048 193.683 159.739 193.184 159.328 192.816C158.923 192.443 158.421 192.256 157.824 192.256C157.349 192.256 156.936 192.368 156.584 192.592C156.237 192.816 155.949 193.123 155.72 193.512C155.496 193.901 155.325 194.344 155.208 194.84C155.096 195.336 155.04 195.856 155.04 196.4C155.04 197.131 155.144 197.811 155.352 198.44C155.56 199.069 155.869 199.579 156.28 199.968C156.696 200.352 157.211 200.544 157.824 200.544ZM167.337 202.208C166.675 202.208 166.078 202.059 165.544 201.76C165.016 201.456 164.56 201.037 164.176 200.504C163.792 199.971 163.499 199.355 163.296 198.656C163.094 197.952 162.992 197.2 162.992 196.4C162.992 195.6 163.094 194.848 163.296 194.144C163.499 193.44 163.792 192.824 164.176 192.296C164.56 191.763 165.016 191.347 165.544 191.048C166.078 190.744 166.675 190.592 167.337 190.592C167.987 190.592 168.579 190.744 169.113 191.048C169.646 191.347 170.099 191.763 170.473 192.296C170.851 192.824 171.142 193.44 171.345 194.144C171.547 194.848 171.649 195.6 171.649 196.4C171.649 197.2 171.547 197.952 171.345 198.656C171.142 199.355 170.851 199.971 170.473 200.504C170.099 201.037 169.646 201.456 169.113 201.76C168.579 202.059 167.987 202.208 167.337 202.208ZM167.337 200.544C167.95 200.544 168.459 200.352 168.865 199.968C169.275 199.579 169.582 199.069 169.785 198.44C169.987 197.811 170.089 197.131 170.089 196.4C170.089 195.632 169.982 194.936 169.769 194.312C169.561 193.683 169.251 193.184 168.84 192.816C168.435 192.443 167.934 192.256 167.337 192.256C166.862 192.256 166.448 192.368 166.096 192.592C165.75 192.816 165.462 193.123 165.232 193.512C165.008 193.901 164.838 194.344 164.72 194.84C164.609 195.336 164.553 195.856 164.553 196.4C164.553 197.131 164.656 197.811 164.864 198.44C165.072 199.069 165.382 199.579 165.793 199.968C166.209 200.352 166.723 200.544 167.337 200.544ZM177.866 190.8L174.626 202.896H172.962L176.202 190.8H177.866ZM183.533 202.208C182.872 202.208 182.275 202.059 181.741 201.76C181.213 201.456 180.757 201.037 180.373 200.504C179.989 199.971 179.696 199.355 179.493 198.656C179.291 197.952 179.189 197.2 179.189 196.4C179.189 195.6 179.291 194.848 179.493 194.144C179.696 193.44 179.989 192.824 180.373 192.296C180.757 191.763 181.213 191.347 181.741 191.048C182.275 190.744 182.872 190.592 183.533 190.592C184.184 190.592 184.776 190.744 185.309 191.048C185.843 191.347 186.296 191.763 186.669 192.296C187.048 192.824 187.339 193.44 187.541 194.144C187.744 194.848 187.845 195.6 187.845 196.4C187.845 197.2 187.744 197.952 187.541 198.656C187.339 199.355 187.048 199.971 186.669 200.504C186.296 201.037 185.843 201.456 185.309 201.76C184.776 202.059 184.184 202.208 183.533 202.208ZM183.533 200.544C184.147 200.544 184.656 200.352 185.061 199.968C185.472 199.579 185.779 199.069 185.981 198.44C186.184 197.811 186.285 197.131 186.285 196.4C186.285 195.632 186.179 194.936 185.965 194.312C185.757 193.683 185.448 193.184 185.037 192.816C184.632 192.443 184.131 192.256 183.533 192.256C183.059 192.256 182.645 192.368 182.293 192.592C181.947 192.816 181.659 193.123 181.429 193.512C181.205 193.901 181.035 194.344 180.917 194.84C180.805 195.336 180.749 195.856 180.749 196.4C180.749 197.131 180.853 197.811 181.061 198.44C181.269 199.069 181.579 199.579 181.989 199.968C182.405 200.352 182.92 200.544 183.533 200.544ZM193.046 202.208C192.385 202.208 191.787 202.059 191.254 201.76C190.726 201.456 190.27 201.037 189.886 200.504C189.502 199.971 189.209 199.355 189.006 198.656C188.803 197.952 188.702 197.2 188.702 196.4C188.702 195.6 188.803 194.848 189.006 194.144C189.209 193.44 189.502 192.824 189.886 192.296C190.27 191.763 190.726 191.347 191.254 191.048C191.787 190.744 192.385 190.592 193.046 190.592C193.697 190.592 194.289 190.744 194.822 191.048C195.355 191.347 195.809 191.763 196.182 192.296C196.561 192.824 196.851 193.44 197.054 194.144C197.257 194.848 197.358 195.6 197.358 196.4C197.358 197.2 197.257 197.952 197.054 198.656C196.851 199.355 196.561 199.971 196.182 200.504C195.809 201.037 195.355 201.456 194.822 201.76C194.289 202.059 193.697 202.208 193.046 202.208ZM193.046 200.544C193.659 200.544 194.169 200.352 194.574 199.968C194.985 199.579 195.291 199.069 195.494 198.44C195.697 197.811 195.798 197.131 195.798 196.4C195.798 195.632 195.691 194.936 195.478 194.312C195.27 193.683 194.961 193.184 194.55 192.816C194.145 192.443 193.643 192.256 193.046 192.256C192.571 192.256 192.158 192.368 191.806 192.592C191.459 192.816 191.171 193.123 190.942 193.512C190.718 193.901 190.547 194.344 190.43 194.84C190.318 195.336 190.262 195.856 190.262 196.4C190.262 197.131 190.366 197.811 190.574 198.44C190.782 199.069 191.091 199.579 191.502 199.968C191.918 200.352 192.433 200.544 193.046 200.544Z" fill="white"/>
</g>
<defs>
<clipPath id="clip0_3162_66240">
<rect width="382" height="241" rx="16" fill="white"/>
</clipPath>
</defs>
</svg>
