<svg width="32" height="32" viewBox="0 0 32 32" fill="none" xmlns="http://www.w3.org/2000/svg">
<path d="M19.76 5.67969C19.4952 6.15394 19.2592 6.64371 19.0533 7.14635C17.0304 6.82642 14.9697 6.82642 12.9467 7.14635C12.7408 6.64371 12.5048 6.15394 12.24 5.67969C10.3344 6.00529 8.48188 6.5884 6.73335 7.41302C3.6066 11.9254 2.18859 17.4036 2.73334 22.8664C4.771 24.3982 7.05796 25.5665 9.49334 26.3197C10.0479 25.5872 10.5428 24.8113 10.9733 23.9997C10.1788 23.7067 9.41507 23.336 8.69335 22.893C8.89129 22.7613 9.07854 22.6142 9.25335 22.453C11.358 23.4668 13.664 23.9932 16 23.9932C18.3361 23.9932 20.6421 23.4668 22.7467 22.453C22.9333 22.613 23.12 22.7597 23.3067 22.893C22.581 23.3325 21.8181 23.7073 21.0267 24.013C21.4394 24.8431 21.921 25.637 22.4667 26.3864C24.899 25.6357 27.182 24.4671 29.2133 22.933C29.7712 17.4693 28.352 11.9866 25.2133 7.47969C23.4845 6.638 21.6502 6.03258 19.76 5.67969ZM11.5733 19.7464C10.9061 19.6985 10.2834 19.3939 9.83591 18.8967C9.38841 18.3995 9.15094 17.7483 9.17335 17.0797C9.14756 16.4102 9.38386 15.7571 9.83203 15.2592C10.2802 14.7612 10.9049 14.4576 11.5733 14.413C12.2418 14.4576 12.8665 14.7612 13.3147 15.2592C13.7628 15.7571 13.9991 16.4102 13.9733 17.0797C13.9991 17.7491 13.7628 18.4022 13.3147 18.9002C12.8665 19.3982 12.2418 19.7017 11.5733 19.7464ZM20.4267 19.7464C19.7595 19.6985 19.1367 19.3939 18.6892 18.8967C18.2417 18.3995 18.0043 17.7483 18.0267 17.0797C18.0009 16.4102 18.2372 15.7571 18.6854 15.2592C19.1335 14.7612 19.7582 14.4576 20.4267 14.413C21.0964 14.4543 21.7231 14.7569 22.1719 15.2556C22.6208 15.7543 22.8559 16.4094 22.8267 17.0797C22.8559 17.75 22.6208 18.405 22.1719 18.9038C21.7231 19.4025 21.0964 19.7051 20.4267 19.7464Z" fill="#5869EB"/>
</svg>
