<svg width="23" height="23" viewBox="0 0 23 23" fill="none" xmlns="http://www.w3.org/2000/svg">
<path d="M22.5001 11.974C22.5001 11.0511 22.4252 10.3776 22.2631 9.6792H11.7245V13.8447H17.9104C17.7858 14.8799 17.1123 16.4388 15.6157 17.4864L15.5947 17.6258L18.9268 20.2072L19.1576 20.2302C21.2778 18.2721 22.5001 15.3912 22.5001 11.974Z" fill="#4285F4"/>
<path d="M11.7245 22.9489C14.7551 22.9489 17.2993 21.9511 19.1576 20.23L15.6156 17.4862C14.6678 18.1472 13.3957 18.6087 11.7245 18.6087C8.75627 18.6087 6.23701 16.6507 5.33897 13.9443L5.20734 13.9555L1.74258 16.6369L1.69727 16.7629C3.54305 20.4295 7.33444 22.9489 11.7245 22.9489Z" fill="#34A853"/>
<path d="M5.33895 13.9445C5.102 13.2461 4.96486 12.4977 4.96486 11.7245C4.96486 10.9513 5.102 10.203 5.32649 9.50458L5.32021 9.35583L1.81203 6.63135L1.69725 6.68594C0.936513 8.20751 0.5 9.91616 0.5 11.7245C0.5 13.5329 0.936513 15.2415 1.69725 16.763L5.33895 13.9445Z" fill="#FBBC05"/>
<path d="M11.7245 4.84011C13.8322 4.84011 15.2539 5.75053 16.0646 6.51136L19.2324 3.41837C17.2869 1.60998 14.7551 0.5 11.7245 0.5C7.33444 0.5 3.54305 3.01925 1.69727 6.68589L5.3265 9.50452C6.23701 6.79818 8.75627 4.84011 11.7245 4.84011Z" fill="#EB4335"/>
</svg>
