<svg width="186" height="180" viewBox="0 0 186 180" fill="none" xmlns="http://www.w3.org/2000/svg">
<circle cx="62.5334" cy="176.5" r="3.5" fill="#FF9292"/>
<circle cx="122.033" cy="171" r="1" fill="#FF9292"/>
<circle cx="10.0334" cy="133" r="5" fill="#FF9292"/>
<circle cx="95.5002" cy="91" r="70.5" fill="url(#paint0_linear_31_8315)"/>
<circle cx="165.533" cy="160.5" r="2.5" fill="#FF9292"/>
<circle cx="170.533" cy="110.5" r="2.5" fill="#FF9292"/>
<circle cx="1.03345" cy="75" r="1" fill="#FF9292"/>
<path fill-rule="evenodd" clip-rule="evenodd" d="M109.807 79.99V83.8234C114.113 85.1674 117.25 89.0653 117.25 93.721V106.063C117.25 111.827 112.472 116.5 106.581 116.5H85.4222C79.5286 116.5 74.7502 111.827 74.7502 106.063V93.721C74.7502 89.0653 77.8901 85.1674 82.1935 83.8234V79.99C82.2189 72.537 88.3919 66.5 95.9621 66.5C103.634 66.5 109.807 72.537 109.807 79.99ZM96.0129 70.8476C101.17 70.8476 105.361 74.9468 105.361 79.99V83.2843H86.6391V79.9403C86.6645 74.9219 90.856 70.8476 96.0129 70.8476ZM98.223 102.637C98.223 103.855 97.2323 104.824 95.9875 104.824C94.7682 104.824 93.7774 103.855 93.7774 102.637V97.1221C93.7774 95.9296 94.7682 94.9607 95.9875 94.9607C97.2323 94.9607 98.223 95.9296 98.223 97.1221V102.637Z" fill="white"/>
<circle cx="178.467" cy="27.5" r="7.5" fill="#FF9292"/>
<circle cx="106.533" cy="4.5" r="2.5" fill="#FF9292"/>
<circle cx="20.0334" cy="10" r="10" fill="#FF9292"/>
<defs>
<linearGradient id="paint0_linear_31_8315" x1="166" y1="161.5" x2="-1.7771" y2="112.855" gradientUnits="userSpaceOnUse">
<stop stop-color="#FF4A4A"/>
<stop offset="1" stop-color="#FF6E6E"/>
</linearGradient>
</defs>
</svg>
