<svg width="186" height="180" viewBox="0 0 186 180" fill="none" xmlns="http://www.w3.org/2000/svg">
<circle cx="62.5334" cy="176.5" r="3.5" fill="#FF9292"/>
<circle cx="122.033" cy="171" r="1" fill="#FF9292"/>
<circle cx="10.0334" cy="133" r="5" fill="#FF9292"/>
<circle cx="95.5002" cy="91" r="70.5" fill="url(#paint0_linear_101_7961)"/>
<circle cx="165.533" cy="160.5" r="2.5" fill="#FF9292"/>
<circle cx="170.533" cy="110.5" r="2.5" fill="#FF9292"/>
<circle cx="1.03345" cy="75" r="1" fill="#FF9292"/>
<path d="M115.217 96.732L115.677 92.4695C115.919 90.1945 116.082 88.6945 115.954 87.7495H115.999C116.855 87.7492 117.685 87.4563 118.351 86.9194C119.018 86.3825 119.48 85.6338 119.662 84.7977C119.844 83.9616 119.735 83.0883 119.353 82.3229C118.97 81.5574 118.337 80.9459 117.559 80.5897C116.781 80.2335 115.904 80.1542 115.075 80.3649C114.246 80.5755 113.513 81.0635 113 81.7478C112.486 82.4321 112.221 83.2716 112.25 84.1268C112.279 84.982 112.6 85.8016 113.159 86.4495C112.344 86.952 111.279 88.0145 109.677 89.612C108.439 90.8445 107.822 91.4595 107.132 91.5545C106.749 91.6072 106.36 91.5527 106.007 91.397C105.372 91.117 104.947 90.357 104.099 88.8345L99.6243 80.812C99.1018 79.8745 98.6643 79.087 98.2693 78.457C99.2699 77.9471 100.07 77.1151 100.54 76.0952C101.01 75.0753 101.123 73.9268 100.861 72.8347C100.599 71.7426 99.9767 70.7707 99.0947 70.0754C98.2127 69.3801 97.1223 69.002 95.9993 69.002C94.8762 69.002 93.7858 69.3801 92.9038 70.0754C92.0218 70.7707 91.3996 71.7426 91.1374 72.8347C90.8752 73.9268 90.9883 75.0753 91.4585 76.0952C91.9287 77.1151 92.7286 77.9471 93.7293 78.457C93.3343 79.0895 92.8968 79.8745 92.3718 80.812L87.8993 88.8345C87.0493 90.357 86.6243 91.117 85.9893 91.397C85.6361 91.5527 85.2466 91.6072 84.8643 91.5545C84.1768 91.4595 83.5593 90.8445 82.3218 89.612C80.7193 88.0145 79.6543 86.952 78.8393 86.4495C79.3983 85.8016 79.719 84.982 79.7481 84.1268C79.7771 83.2716 79.5128 82.4321 78.999 81.7478C78.4852 81.0635 77.7528 80.5755 76.9234 80.3649C76.094 80.1542 75.2175 80.2335 74.4394 80.5897C73.6614 80.9459 73.0285 81.5574 72.6459 82.3229C72.2633 83.0883 72.154 83.9616 72.3362 84.7977C72.5183 85.6338 72.981 86.3825 73.6473 86.9194C74.3136 87.4563 75.1435 87.7492 75.9993 87.7495H76.0443C75.9168 88.6945 76.0793 90.197 76.3218 92.4695L76.7818 96.732C77.0368 99.097 77.2468 101.349 77.5068 103.374H114.492C114.752 101.349 114.962 99.0995 115.217 96.732ZM93.2793 113.999H98.7193C105.809 113.999 109.354 113.999 111.719 111.882C112.752 110.957 113.404 109.292 113.877 107.124H78.1218C78.5943 109.292 79.2468 110.959 80.2793 111.882C82.6443 113.999 86.1893 113.999 93.2793 113.999Z" fill="white"/>
<circle cx="178.467" cy="27.5" r="7.5" fill="#FF9292"/>
<circle cx="106.533" cy="4.5" r="2.5" fill="#FF9292"/>
<circle cx="20.0334" cy="10" r="10" fill="#FF9292"/>
<defs>
<linearGradient id="paint0_linear_101_7961" x1="166" y1="161.5" x2="-1.7771" y2="112.855" gradientUnits="userSpaceOnUse">
<stop stop-color="#FF4A4A"/>
<stop offset="1" stop-color="#FF6E6E"/>
</linearGradient>
</defs>
</svg>
