<svg width="32" height="32" viewBox="0 0 32 32" fill="none" xmlns="http://www.w3.org/2000/svg">
<path d="M12.8934 18.6684C13.6305 18.6684 14.228 18.0708 14.228 17.3337C14.228 16.5966 13.6305 15.999 12.8934 15.999C12.1563 15.999 11.5587 16.5966 11.5587 17.3337C11.5587 18.0708 12.1563 18.6684 12.8934 18.6684Z" fill="#FF4500"/>
<path d="M18.7867 20.5217C17.9773 21.1017 16.9943 21.3882 16 21.3337C15.0064 21.3783 14.0274 21.0819 13.2254 20.4937C13.1561 20.4385 13.0689 20.4107 12.9805 20.4157C12.892 20.4207 12.8085 20.4582 12.746 20.5209C12.6834 20.5836 12.6462 20.6672 12.6414 20.7557C12.6366 20.8442 12.6646 20.9313 12.72 21.0004C13.6667 21.7137 14.8294 22.079 16.0147 22.027C17.1982 22.079 18.3626 21.7159 19.3067 21.0004V21.0537C19.3765 20.9841 19.4164 20.8899 19.4179 20.7913C19.4194 20.6927 19.3824 20.5974 19.3147 20.5257C19.2803 20.4908 19.2394 20.463 19.1942 20.4439C19.149 20.4247 19.1006 20.4147 19.0515 20.4143C19.0025 20.414 18.9539 20.4233 18.9084 20.4417C18.863 20.4601 18.8216 20.4873 18.7867 20.5217ZM19.0654 16.0537C18.7118 16.0537 18.3726 16.1942 18.1226 16.4442C17.8725 16.6943 17.732 17.0334 17.732 17.387C17.732 17.7407 17.8725 18.0798 18.1226 18.3299C18.3726 18.5799 18.7118 18.7204 19.0654 18.7204L19.0547 18.7724C19.076 18.775 19.0987 18.7724 19.1227 18.7724C19.4755 18.7578 19.8081 18.6039 20.0475 18.3445C20.287 18.085 20.4138 17.7412 20.4 17.3884C20.4002 17.2131 20.3658 17.0394 20.2988 16.8774C20.2318 16.7154 20.1335 16.5682 20.0095 16.4442C19.8855 16.3203 19.7383 16.222 19.5763 16.1549C19.4143 16.0879 19.2407 16.0535 19.0654 16.0537Z" fill="#FF4500"/>
<path d="M16 2.66699C8.63863 2.66699 2.66663 8.63633 2.66663 16.0003C2.66663 23.3617 8.63863 29.3337 16 29.3337C23.3613 29.3337 29.3333 23.3617 29.3333 16.0003C29.3333 8.63633 23.3613 2.66699 16 2.66699ZM23.812 17.7737C23.828 17.9683 23.828 18.1643 23.812 18.359C23.812 21.3457 20.3333 23.775 16.0386 23.775C11.744 23.775 8.26529 21.3483 8.26529 18.359C8.24929 18.1642 8.24929 17.9684 8.26529 17.7737C7.98454 17.6449 7.73847 17.4511 7.54741 17.2084C7.35635 16.9657 7.22579 16.681 7.16652 16.3779C7.10724 16.0747 7.12096 15.7618 7.20653 15.465C7.2921 15.1682 7.44706 14.8961 7.65863 14.671C7.83359 14.4846 8.04358 14.3346 8.27659 14.2295C8.5096 14.1244 8.76104 14.0663 9.01654 14.0585C9.27203 14.0507 9.52656 14.0934 9.76554 14.1841C10.0045 14.2747 10.2233 14.4117 10.4093 14.587C11.9454 13.5456 13.7523 12.9756 15.608 12.947L16.5986 8.32032V8.31499C16.6232 8.20805 16.6888 8.11506 16.7814 8.05617C16.874 7.99728 16.986 7.97722 17.0933 8.00033L20.3586 8.65366C20.5187 8.3795 20.7713 8.17137 21.071 8.06665C21.3707 7.96192 21.6979 7.96746 21.9939 8.08226C22.2898 8.19706 22.5352 8.41361 22.6859 8.69303C22.8366 8.97246 22.8828 9.29645 22.8161 9.60684C22.7495 9.91724 22.5744 10.1937 22.3222 10.3866C22.0701 10.5795 21.7574 10.6762 21.4404 10.6594C21.1234 10.6425 20.8227 10.5133 20.5925 10.2947C20.3622 10.0762 20.2174 9.7827 20.184 9.46699L17.3333 8.86699L16.468 13.027C18.3015 13.0666 20.0844 13.6362 21.6013 14.667C21.8723 14.4074 22.2126 14.2316 22.5812 14.1609C22.9497 14.0902 23.3309 14.1275 23.6787 14.2684C24.0266 14.4093 24.3263 14.6477 24.5418 14.955C24.7573 15.2623 24.8793 15.6253 24.8933 16.0003C24.9066 16.751 24.484 17.4403 23.812 17.7737Z" fill="#FF4500"/>
</svg>
