<svg width="24" height="24" viewBox="0 0 24 24" fill="none" xmlns="http://www.w3.org/2000/svg">
<g id="arrow-repeat">
<path id="Vector" d="M12.0071 2.99072C9.95308 2.99072 7.99109 3.67973 6.41309 4.92873C5.98009 5.27073 5.91408 5.90172 6.25708 6.33472C6.60008 6.76772 7.23009 6.83372 7.66309 6.49072C8.89009 5.51972 10.4081 4.99072 12.0071 4.99072C15.8731 4.99072 19.0071 8.12472 19.0071 11.9907H17.0071L20.0071 15.9907L23.0071 11.9907H21.0071C21.0071 7.01972 16.9781 2.99072 12.0071 2.99072ZM4.00708 7.99072L1.00708 11.9907H3.00708C3.00708 16.9617 7.03608 20.9907 12.0071 20.9907C14.0621 20.9907 16.0231 20.3027 17.6011 19.0527C18.0341 18.7107 18.1001 18.0797 17.7571 17.6467C17.4141 17.2137 16.7841 17.1477 16.3511 17.4907C15.1231 18.4627 13.6071 18.9907 12.0071 18.9907C8.14108 18.9907 5.00708 15.8567 5.00708 11.9907H7.00708L4.00708 7.99072Z" fill="#2A343D"/>
</g>
</svg>
