<svg width="186" height="180" viewBox="0 0 186 180" fill="none" xmlns="http://www.w3.org/2000/svg">
<circle cx="62.5334" cy="176.5" r="3.5" fill="#FF9292"/>
<circle cx="122.033" cy="171" r="1" fill="#FF9292"/>
<circle cx="10.0334" cy="133" r="5" fill="#FF9292"/>
<circle cx="95.5002" cy="91" r="70.5" fill="url(#paint0_linear_31_8038)"/>
<circle cx="165.533" cy="160.5" r="2.5" fill="#FF9292"/>
<circle cx="170.533" cy="110.5" r="2.5" fill="#FF9292"/>
<circle cx="1.03345" cy="75" r="1" fill="#FF9292"/>
<path fill-rule="evenodd" clip-rule="evenodd" d="M85.1755 66.4998H106.85C115.325 66.4998 121 72.4498 121 81.2998V101.727C121 110.55 115.325 116.5 106.85 116.5H85.1755C76.7005 116.5 71.0005 110.55 71.0005 101.727V81.2998C71.0005 72.4498 76.7005 66.4998 85.1755 66.4998ZM94.5755 98.9748L106.45 87.0998C107.3 86.2498 107.3 84.8748 106.45 83.9998C105.6 83.1498 104.2 83.1498 103.35 83.9998L93.0255 94.3248L88.6505 89.9498C87.8005 89.0998 86.4005 89.0998 85.5505 89.9498C84.7005 90.7998 84.7005 92.1748 85.5505 93.0498L91.5005 98.9748C91.9255 99.3998 92.4755 99.5998 93.0255 99.5998C93.6005 99.5998 94.1505 99.3998 94.5755 98.9748Z" fill="white"/>
<circle cx="178.467" cy="27.5" r="7.5" fill="#FF9292"/>
<circle cx="106.533" cy="4.5" r="2.5" fill="#FF9292"/>
<circle cx="20.0334" cy="10" r="10" fill="#FF9292"/>
<defs>
<linearGradient id="paint0_linear_31_8038" x1="166" y1="161.5" x2="-1.7771" y2="112.855" gradientUnits="userSpaceOnUse">
<stop stop-color="#FF4A4A"/>
<stop offset="1" stop-color="#FF6E6E"/>
</linearGradient>
</defs>
</svg>
