<svg width="25" height="25" viewBox="0 0 25 25" fill="none" xmlns="http://www.w3.org/2000/svg">
<path d="M22.96 6.5C22.19 6.85 21.36 7.08 20.5 7.19C21.38 6.66 22.06 5.82 22.38 4.81C21.55 5.31 20.63 5.66 19.66 5.86C18.87 5 17.76 4.5 16.5 4.5C14.15 4.5 12.23 6.42 12.23 8.79C12.23 9.13 12.27 9.46 12.34 9.77C8.77998 9.59 5.60998 7.88 3.49998 5.29C3.12998 5.92 2.91998 6.66 2.91998 7.44C2.91998 8.93 3.66998 10.25 4.82998 11C4.11998 11 3.45998 10.8 2.87998 10.5V10.53C2.87998 12.61 4.35998 14.35 6.31998 14.74C5.69071 14.9122 5.03007 14.9362 4.38998 14.81C4.66158 15.6625 5.19351 16.4084 5.91099 16.9429C6.62847 17.4775 7.49543 17.7737 8.38998 17.79C6.87361 18.9904 4.99397 19.6393 3.05998 19.63C2.71998 19.63 2.37998 19.61 2.03998 19.57C3.93998 20.79 6.19998 21.5 8.61998 21.5C16.5 21.5 20.83 14.96 20.83 9.29C20.83 9.1 20.83 8.92 20.82 8.73C21.66 8.13 22.38 7.37 22.96 6.5Z" fill="#1DA1F2"/>
</svg>
