<svg width="83" height="80" viewBox="0 0 83 80" fill="none" xmlns="http://www.w3.org/2000/svg">
<circle cx="27.7772" cy="78.4442" r="1.55555" fill="white"/>
<circle cx="54.2223" cy="76.0001" r="0.444442" fill="white"/>
<circle cx="4.44413" cy="59.1109" r="2.22221" fill="white"/>
<circle cx="42.3335" cy="40.3341" r="31.3332" fill="white"/>
<circle cx="73.5552" cy="71.3328" r="1.11111" fill="white"/>
<circle cx="75.7771" cy="49.1111" r="1.11111" fill="white"/>
<circle cx="0.444442" cy="33.3331" r="0.444442" fill="white"/>
<path d="M53.5304 43.14L53.8064 40.5825C53.9519 39.2175 54.0494 38.3175 53.9729 37.7505H53.9999C54.5133 37.7503 55.0113 37.5746 55.4111 37.2524C55.8109 36.9303 56.0884 36.4811 56.1977 35.9794C56.307 35.4777 56.2415 34.9538 56.0119 34.4945C55.7824 34.0352 55.4026 33.6683 54.9358 33.4546C54.4689 33.2409 53.943 33.1933 53.4454 33.3197C52.9478 33.4461 52.5083 33.7389 52.2 34.1495C51.8918 34.5601 51.7332 35.0637 51.7506 35.5769C51.768 36.09 51.9605 36.5817 52.2959 36.9705C51.8069 37.272 51.1679 37.9095 50.2064 38.868C49.4639 39.6075 49.0934 39.9765 48.6794 40.0335C48.45 40.0651 48.2163 40.0324 48.0044 39.939C47.6234 39.771 47.3684 39.315 46.8599 38.4015L44.1749 33.588C43.8614 33.0255 43.5989 32.553 43.3619 32.175C43.9623 31.869 44.4422 31.3699 44.7243 30.7579C45.0064 30.146 45.0743 29.4568 44.917 28.8016C44.7597 28.1464 44.3864 27.5632 43.8572 27.146C43.328 26.7288 42.6738 26.502 41.9999 26.502C41.326 26.502 40.6718 26.7288 40.1426 27.146C39.6134 27.5632 39.2401 28.1464 39.0828 28.8016C38.9255 29.4568 38.9934 30.146 39.2755 30.7579C39.5576 31.3699 40.0375 31.869 40.6379 32.175C40.4009 32.5545 40.1384 33.0255 39.8234 33.588L37.1399 38.4015C36.6299 39.315 36.3749 39.771 35.9939 39.939C35.782 40.0324 35.5483 40.0651 35.3189 40.0335C34.9064 39.9765 34.5359 39.6075 33.7934 38.868C32.8319 37.9095 32.1929 37.272 31.7039 36.9705C32.0393 36.5817 32.2318 36.09 32.2492 35.5769C32.2666 35.0637 32.108 34.5601 31.7998 34.1495C31.4915 33.7389 31.052 33.4461 30.5544 33.3197C30.0568 33.1933 29.5309 33.2409 29.064 33.4546C28.5972 33.6683 28.2174 34.0352 27.9879 34.4945C27.7583 34.9538 27.6928 35.4777 27.8021 35.9794C27.9114 36.4811 28.1889 36.9303 28.5887 37.2524C28.9885 37.5746 29.4865 37.7503 29.9999 37.7505H30.0269C29.9504 38.3175 30.0479 39.219 30.1934 40.5825L30.4694 43.14C30.6224 44.559 30.7484 45.9105 30.9044 47.1255H53.0954C53.2514 45.9105 53.3774 44.5605 53.5304 43.14ZM40.3679 53.5005H43.6319C47.8859 53.5005 50.0129 53.5005 51.4319 52.23C52.0514 51.675 52.4429 50.676 52.7264 49.3755H31.2734C31.5569 50.676 31.9484 51.6765 32.5679 52.23C33.9869 53.5005 36.1139 53.5005 40.3679 53.5005Z" fill="url(#paint0_linear_59_11539)"/>
<circle cx="79.3032" cy="12.222" r="3.33332" fill="white"/>
<circle cx="47.3328" cy="1.99978" r="1.11111" fill="white"/>
<circle cx="8.88888" cy="4.44442" r="4.44442" fill="white"/>
<defs>
<linearGradient id="paint0_linear_59_11539" x1="56.2493" y1="53.5005" x2="22.636" y2="43.213" gradientUnits="userSpaceOnUse">
<stop stop-color="#F89300"/>
<stop offset="1" stop-color="#FFBB58"/>
</linearGradient>
</defs>
</svg>
