<svg width="32" height="32" viewBox="0 0 32 32" fill="none" xmlns="http://www.w3.org/2000/svg">
<path d="M28.7906 9.60434C28.6388 9.04087 28.342 8.52701 27.9298 8.11389C27.5176 7.70078 27.0044 7.40282 26.4413 7.24967C24.3533 6.67634 16 6.667 16 6.667C16 6.667 7.64795 6.65767 5.55862 7.20567C4.99585 7.36586 4.48371 7.66804 4.07137 8.08318C3.65903 8.49832 3.36033 9.0125 3.20395 9.57634C2.65328 11.6643 2.64795 15.995 2.64795 15.995C2.64795 15.995 2.64262 20.347 3.18928 22.4137C3.49595 23.5563 4.39595 24.459 5.53995 24.767C7.64929 25.3403 15.98 25.3497 15.98 25.3497C15.98 25.3497 24.3333 25.359 26.4213 24.8123C26.9846 24.6595 27.4983 24.3622 27.9115 23.9499C28.3247 23.5376 28.6231 23.0246 28.7773 22.4617C29.3293 20.375 29.3333 16.0457 29.3333 16.0457C29.3333 16.0457 29.36 11.6923 28.7906 9.60434ZM13.328 20.007L13.3346 12.007L20.2773 16.0137L13.328 20.007Z" fill="#EE2E24"/>
</svg>
